<svg width="24" height="10" viewBox="0 0 24 6" fill="none" xmlns="http://www.w3.org/2000/svg">
<path fill-rule="evenodd" clip-rule="evenodd" d="M4.38575 1.67656C4.369 1.67753 4.36642 1.68875 4.36203 1.69653C4.24236 1.90599 4.06516 2.0559 3.85674 2.17304C3.80308 2.20304 3.79202 2.19892 3.77276 2.14469C3.68242 1.89319 3.59307 1.642 3.50242 1.39043C3.438 1.2112 3.37517 1.03106 3.30037 0.855272C3.24194 0.716883 3.13962 0.626144 2.99464 0.582832C2.95015 0.569442 2.90437 0.559493 2.85859 0.55074C2.68269 0.518051 2.50617 0.520818 2.32958 0.540492C2.0672 0.569442 1.88402 0.700949 1.79686 0.952519C1.51773 1.75451 1.21646 2.54864 0.936044 3.35032C0.879202 3.51362 0.816372 3.67483 0.767716 3.84C0.690335 4.10428 0.79932 4.33745 1.04533 4.45931C1.13848 4.50517 1.237 4.522 1.34053 4.51571C1.56002 4.5033 1.71417 4.39977 1.79027 4.19592C1.84521 4.04915 1.89539 3.90074 1.92979 3.74806C1.95321 3.64393 2.01036 3.56636 2.09941 3.50771C2.29586 3.37748 2.51337 3.30641 2.74582 3.27365C2.83646 3.26086 2.92741 3.25367 3.01896 3.24904C3.05246 3.24717 3.07391 3.25712 3.07929 3.29235C3.08088 3.302 3.08558 3.31135 3.08846 3.3207C3.13394 3.48093 3.1788 3.64176 3.22549 3.80102C3.26058 3.92041 3.29817 4.0395 3.33569 4.15792C3.38184 4.30282 3.46802 4.41473 3.61361 4.47487C3.8293 4.56374 4.086 4.51324 4.25054 4.34807C4.36301 4.23587 4.41379 4.10024 4.39333 3.94256C4.38446 3.87082 4.36612 3.80073 4.34149 3.7328C4.25342 3.48714 4.16657 3.24096 4.07691 2.9953C4.05986 2.94825 4.06455 2.91301 4.10086 2.87591C4.1912 2.78367 4.25153 2.67207 4.2995 2.55395C4.35445 2.4187 4.37908 2.27717 4.38855 2.13197C4.39833 1.98012 4.39553 1.82834 4.38575 1.67656ZM2.56799 5.04101C1.84988 5.04101 1.13178 5.04101 0.413672 5.04131C0.36062 5.04131 0.307567 5.04011 0.256106 5.02792C0.108013 4.99299 0.0119883 4.87517 0.00289359 4.71935C0.00160517 4.69721 0.00221148 4.67507 0.00221148 4.653V1.34003C0.00221148 1.02271 0.000998852 0.705756 1.35898e-05 0.388432C-0.000289568 0.337939 0.00440937 0.288418 0.0211588 0.240393C0.0729988 0.0898851 0.204039 0.0013158 0.384948 0.000118922C0.523264 -0.000853544 0.661276 0.00445762 0.799895 0.00445762C2.11583 0.00505606 3.43168 0.00475684 4.74792 0.00475684C4.79688 0.00475684 4.84515 0.00475684 4.89283 0.0184462C5.0391 0.059589 5.13346 0.176509 5.13914 0.326419C5.14013 0.342652 5.13982 0.35851 5.13982 0.374444C5.13982 1.80008 5.13982 3.22572 5.14013 4.65113C5.14013 4.70783 5.13694 4.76334 5.11769 4.81719C5.07381 4.94032 4.98476 5.01049 4.85592 5.03323C4.81203 5.04071 4.76717 5.04131 4.722 5.04131C4.00419 5.04101 3.28609 5.04101 2.56799 5.04101Z" fill="#ED2329"/>
<path fill-rule="evenodd" clip-rule="evenodd" d="M16.2127 2.48464C16.2159 2.48044 16.2193 2.47704 16.2227 2.47384C16.2159 2.47044 16.2101 2.46624 16.2035 2.46464C16.2009 2.46384 16.1969 2.47044 16.1943 2.47384C16.2001 2.47704 16.2059 2.48044 16.2127 2.48464ZM15.4545 1.82226C15.6248 1.75494 15.7924 1.70699 15.973 1.71723C16.1275 1.72629 16.2203 1.81979 16.2244 1.97225C16.2269 2.06762 16.2039 2.15888 16.1811 2.25089C16.1695 2.29884 16.1483 2.3453 16.1492 2.39706C16.178 2.39863 16.183 2.37522 16.1941 2.36056C16.3097 2.20938 16.4328 2.06575 16.5781 1.94135C16.6691 1.8634 16.7676 1.79578 16.8781 1.74716C16.9861 1.69981 17.0985 1.67893 17.2166 1.70414C17.3515 1.73287 17.432 1.81702 17.4582 1.9507C17.48 2.06201 17.462 2.17048 17.4408 2.27925C17.4288 2.33969 17.4077 2.39893 17.4067 2.46469C17.4329 2.46222 17.4386 2.44067 17.449 2.42631C17.5409 2.30356 17.6366 2.18387 17.744 2.07323C17.8526 1.96102 17.972 1.86191 18.1103 1.78583C18.2145 1.72846 18.3251 1.69105 18.4466 1.69449C18.4854 1.69547 18.5237 1.70108 18.5609 1.71103C18.6907 1.74626 18.7665 1.8441 18.776 1.98593C18.7848 2.11153 18.7599 2.23339 18.7343 2.35562C18.6626 2.69688 18.584 3.03725 18.5237 3.38135C18.5035 3.49857 18.4921 3.61571 18.5154 3.73391C18.5309 3.81395 18.56 3.88755 18.6222 3.95047C18.4561 4.05243 18.2888 4.12566 18.0907 4.09357C17.9477 4.07053 17.852 3.98196 17.8245 3.8411C17.803 3.7348 17.8116 3.62918 17.8311 3.52408C17.8899 3.21274 17.9597 2.90319 18.025 2.59313C18.0437 2.50486 18.0633 2.41666 18.0806 2.32817C18.086 2.30199 18.0983 2.26773 18.0683 2.25179C18.0421 2.2378 18.02 2.26488 17.9985 2.27925C17.9713 2.29727 17.9511 2.32256 17.93 2.34687C17.8317 2.45997 17.7415 2.57876 17.6606 2.70436C17.4698 3.00111 17.2917 3.30467 17.1585 3.63165C17.1415 3.67466 17.126 3.71827 17.1149 3.76315C17.0957 3.84013 17.1011 3.91463 17.139 3.9851C17.1509 4.00814 17.156 4.0228 17.1235 4.03402C16.982 4.08295 16.8393 4.11728 16.6877 4.09514C16.52 4.07053 16.4369 3.95982 16.4634 3.79278C16.4888 3.63382 16.5332 3.47957 16.5717 3.32367C16.6491 3.00979 16.7275 2.69628 16.7752 2.37679C16.7786 2.35495 16.7852 2.33348 16.7877 2.31164C16.7909 2.29166 16.79 2.27176 16.7685 2.25897C16.7445 2.24461 16.7256 2.25583 16.7076 2.2696C16.6946 2.27954 16.6839 2.29166 16.6725 2.30326C16.5424 2.43162 16.4344 2.57749 16.3372 2.73084C16.1603 3.00792 16.0071 3.29749 15.8723 3.59671C15.8439 3.6591 15.8192 3.72298 15.811 3.7915C15.8029 3.85853 15.8117 3.92309 15.8408 3.9851C15.8581 4.0219 15.8562 4.02684 15.8214 4.03874C15.68 4.08669 15.5366 4.11848 15.385 4.09327C15.2053 4.06305 15.1113 3.93775 15.1457 3.76069C15.175 3.61108 15.2237 3.4661 15.2635 3.31874C15.3515 2.99333 15.4296 2.66539 15.4873 2.33318C15.5076 2.21843 15.518 2.10248 15.5224 1.98593C15.5249 1.92235 15.5073 1.86752 15.4545 1.82226Z" fill="#ED2329"/>
<path fill-rule="evenodd" clip-rule="evenodd" d="M7.91943 1.83691C7.81711 2.16381 7.71737 2.48083 7.61816 2.79718C7.63651 2.80624 7.65106 2.80437 7.66523 2.80437C7.82787 2.80467 7.99082 2.80526 8.15316 2.80526C8.23115 2.80526 8.23274 2.80309 8.20871 2.72612C8.12186 2.45031 8.03538 2.17473 7.94853 1.89923C7.94254 1.88112 7.94065 1.86055 7.91943 1.83691ZM7.86154 0.951836C7.97015 0.948769 8.06716 0.956549 8.16409 0.970537C8.3447 0.997093 8.46346 1.09397 8.52379 1.26385C8.59041 1.45116 8.65953 1.63728 8.72683 1.82459C8.92168 2.36692 9.11616 2.90956 9.31041 3.45257C9.32337 3.4881 9.33345 3.52513 9.34512 3.56134C9.42598 3.80789 9.20332 4.13517 8.86007 4.08841C8.68605 4.0641 8.57616 3.96932 8.52439 3.80565C8.49817 3.72374 8.47324 3.64078 8.44762 3.5582C8.42807 3.49558 8.42147 3.49057 8.35288 3.49057C8.06617 3.49027 7.77916 3.49027 7.49207 3.49057C7.42734 3.49057 7.42007 3.49588 7.40142 3.55573C7.37808 3.63053 7.35216 3.70436 7.33261 3.77984C7.25583 4.07158 6.99436 4.13389 6.78723 4.06971C6.61579 4.01638 6.51158 3.90544 6.48884 3.72621C6.48028 3.65918 6.49483 3.5947 6.51378 3.53074C6.56963 3.33969 6.64163 3.15425 6.70894 2.96723C6.90379 2.42707 7.10615 1.88914 7.29153 1.34554C7.30509 1.30566 7.32093 1.26639 7.33988 1.22861C7.42386 1.06098 7.56376 0.974278 7.75074 0.959317C7.79113 0.95595 7.83183 0.953706 7.86154 0.951836Z" fill="#145EAB"/>
<path fill-rule="evenodd" clip-rule="evenodd" d="M13.9669 2.95146C13.9694 2.88354 13.9625 2.80746 13.9533 2.73176C13.9432 2.64356 13.9204 2.55814 13.8756 2.48019C13.8299 2.40105 13.7635 2.34928 13.671 2.33275C13.4604 2.29475 13.2924 2.39072 13.2219 2.59083C13.1928 2.67221 13.1746 2.75667 13.1667 2.8427C13.1512 3.00757 13.1758 3.1672 13.2383 3.32055C13.2743 3.40748 13.3372 3.47166 13.4282 3.50532C13.5203 3.53936 13.6151 3.54213 13.7101 3.51938C13.8096 3.49597 13.8696 3.42835 13.9062 3.33768C13.9545 3.21642 13.9697 3.08925 13.9669 2.95146ZM14.8103 2.9234V3.57982C14.81 3.63996 14.8056 3.69981 14.7981 3.76002C14.7721 3.962 14.6114 4.11468 14.4065 4.12433C14.2925 4.12934 14.1902 4.09164 14.1061 4.01339C14.0638 3.97412 14.0648 3.97195 14.0136 3.99843C13.8469 4.08602 13.6688 4.12934 13.4805 4.12687C12.9377 4.11871 12.4603 3.74349 12.3645 3.22577C12.2925 2.83768 12.3513 2.47525 12.6002 2.15418C12.7795 1.92259 13.0185 1.79138 13.3072 1.74335C13.4604 1.71785 13.6139 1.70812 13.7673 1.74246C13.8513 1.76116 13.9309 1.78951 14.0067 1.83005C14.0682 1.86304 14.0682 1.86304 14.121 1.81816C14.2871 1.677 14.5407 1.68822 14.6897 1.84344C14.7538 1.91047 14.7841 1.99208 14.7977 2.08125C14.8138 2.18912 14.8116 2.29721 14.8125 2.40568C14.8138 2.5784 14.8128 2.75075 14.8128 2.9234H14.8103Z" fill="#145EAB"/>
<path fill-rule="evenodd" clip-rule="evenodd" d="M20.841 3.34108C20.8362 3.37975 20.8476 3.41685 20.8518 3.45456C20.8533 3.46855 20.8568 3.48231 20.8605 3.4957C20.8821 3.56392 20.9174 3.57858 20.979 3.54305C21.0343 3.51193 21.0787 3.46735 21.1185 3.41902C21.2165 3.29836 21.3122 3.17651 21.3946 3.0447C21.5145 2.85208 21.6339 2.65848 21.7533 2.46496C21.7605 2.45277 21.7678 2.44065 21.7735 2.42786C21.7994 2.37302 21.7953 2.34527 21.7492 2.30533C21.6851 2.24989 21.615 2.20097 21.5345 2.17038C21.4274 2.13021 21.327 2.1436 21.2376 2.21683C21.1758 2.26732 21.128 2.32904 21.0933 2.4004C21.0273 2.53632 20.9726 2.67658 20.9297 2.82088C20.8795 2.99076 20.8502 3.16439 20.841 3.34108ZM21.5956 3.33798C21.5776 3.36192 21.5596 3.38593 21.5422 3.40965C21.4317 3.55896 21.318 3.70543 21.1825 3.83417C21.073 3.9383 20.9551 4.02836 20.8064 4.07167C20.6971 4.10347 20.5866 4.11312 20.4752 4.09097C20.3163 4.06015 20.208 3.96941 20.1546 3.81793C20.1051 3.67767 20.0889 3.53091 20.1 3.38474C20.1401 2.84734 20.3549 2.39013 20.7578 2.02291C20.8892 1.90322 21.0395 1.81256 21.2147 1.76738C21.4377 1.71 21.6537 1.73775 21.8646 1.82161C21.8722 1.82468 21.8795 1.82812 21.887 1.83096C21.9233 1.84562 21.929 1.84375 21.936 1.80695C21.9559 1.70222 21.9758 1.59779 21.9828 1.49149C21.9866 1.43726 21.9764 1.38333 21.9723 1.32947C21.9698 1.29079 21.9825 1.26431 22.0188 1.24748C22.1511 1.18607 22.2875 1.14365 22.4359 1.1521C22.4687 1.15367 22.5009 1.15861 22.5319 1.16707C22.6623 1.2029 22.7334 1.30979 22.7131 1.44197C22.693 1.57288 22.6611 1.70162 22.6295 1.82999C22.541 2.19092 22.4524 2.55126 22.3838 2.91623C22.3513 3.08799 22.3206 3.25974 22.308 3.43396C22.296 3.59606 22.3165 3.75435 22.3873 3.90396C22.4091 3.94982 22.4081 3.95326 22.3658 3.98221C22.1997 4.09628 22.0213 4.1393 21.8239 4.0707C21.6945 4.02552 21.6209 3.93575 21.5962 3.80454C21.5779 3.70917 21.5827 3.61289 21.5899 3.51654C21.5943 3.45857 21.5997 3.4006 21.605 3.34292C21.6016 3.34135 21.5984 3.33985 21.5956 3.33798Z" fill="#ED2329"/>
<path fill-rule="evenodd" clip-rule="evenodd" d="M11.0052 3.08355V2.45519C11.0052 2.43933 11.0052 2.4234 11.0049 2.40717C11.0043 2.37695 10.9913 2.35824 10.9588 2.3548C10.9364 2.35233 10.9142 2.34889 10.8925 2.34455C10.7598 2.31777 10.6616 2.2105 10.6565 2.08775C10.6509 1.96305 10.7288 1.85615 10.8555 1.81688C10.8846 1.80753 10.9152 1.80379 10.9445 1.79563C10.9932 1.78254 10.9998 1.77544 11.0036 1.72584C11.0087 1.65134 11.003 1.5772 11.0099 1.503C11.0339 1.24866 11.1599 1.071 11.4078 0.985271C11.6611 0.897375 11.9153 0.903583 12.1679 0.987141C12.2753 1.02327 12.3549 1.0906 12.3839 1.20535C12.395 1.24896 12.3947 1.29324 12.3877 1.33685C12.3701 1.44689 12.2974 1.5095 12.1828 1.51392C12.1382 1.51549 12.0934 1.51137 12.0489 1.51175C12.0161 1.51175 11.9832 1.51108 11.9513 1.51639C11.8767 1.52858 11.8373 1.57122 11.8285 1.64543C11.8256 1.67131 11.8221 1.69749 11.8218 1.72337C11.8212 1.77663 11.8351 1.79159 11.8891 1.79376C11.9563 1.79661 12.0236 1.79414 12.0902 1.80349C12.2052 1.81875 12.2962 1.86924 12.3328 1.98489C12.3773 2.12418 12.3391 2.26631 12.1679 2.32959C12.1079 2.35174 12.0457 2.35892 11.9822 2.35824C11.9456 2.35765 11.9087 2.35794 11.8721 2.35705C11.8414 2.35607 11.8275 2.37163 11.8259 2.40036C11.8253 2.41031 11.825 2.42026 11.825 2.43028C11.8247 2.84979 11.8247 3.26967 11.8244 3.68918C11.8244 3.74154 11.8174 3.79293 11.8004 3.84313C11.7368 4.0255 11.5679 4.12088 11.3646 4.08841C11.1438 4.05288 11.0213 3.91673 11.009 3.69606C10.9976 3.4872 11.0071 3.27865 11.0052 3.08355Z" fill="#145EAB"/>
<path fill-rule="evenodd" clip-rule="evenodd" d="M9.63198 2.50176C9.63198 2.32911 9.63168 2.15676 9.63198 1.98403C9.63228 1.78333 9.63289 1.58293 9.63259 1.38223C9.63259 1.31116 9.64335 1.24226 9.67116 1.17651C9.73998 1.01224 9.88648 0.920304 10.0703 0.924942C10.2405 0.92928 10.382 1.03468 10.4394 1.20015C10.4635 1.26905 10.4738 1.34041 10.4738 1.41305C10.4748 2.13738 10.4751 2.8618 10.4751 3.58613C10.4751 3.6753 10.4628 3.76223 10.4278 3.84518C10.3593 4.00602 10.2228 4.09391 10.0456 4.09204C9.87579 4.09017 9.73589 3.99569 9.67238 3.8389C9.64494 3.77128 9.63198 3.70051 9.63198 3.62728C9.63168 3.31624 9.63137 3.00512 9.63099 2.69438C9.63069 2.6302 9.63099 2.56602 9.63099 2.50176H9.63198Z" fill="#145EAB"/>
<path fill-rule="evenodd" clip-rule="evenodd" d="M18.9502 3.73156C18.9534 3.58135 18.983 3.4479 19.014 3.31482C19.0831 3.01807 19.1535 2.72139 19.2211 2.42434C19.2502 2.29687 19.2726 2.16843 19.2666 2.03692C19.2638 1.97177 19.2543 1.90908 19.2214 1.85148C19.2101 1.83151 19.2066 1.8134 19.2347 1.80405C19.4236 1.74488 19.6137 1.69776 19.8148 1.72805C19.9541 1.74892 20.0577 1.83959 20.0153 2.02256C19.9803 2.17284 19.9355 2.32118 19.8948 2.47019C19.8148 2.76253 19.7432 3.05674 19.6967 3.35626C19.6807 3.46136 19.6629 3.56669 19.6788 3.67329C19.6913 3.76148 19.7081 3.84811 19.7731 3.9161C19.7943 3.93787 19.7874 3.95568 19.7665 3.97123C19.7371 3.99308 19.7034 4.00707 19.6702 4.02233C19.5389 4.08284 19.4033 4.11553 19.2568 4.09534C19.0712 4.06945 18.9783 3.97931 18.9559 3.79641C18.9524 3.77053 18.9512 3.74435 18.9502 3.73156" fill="#ED2329"/>
<path fill-rule="evenodd" clip-rule="evenodd" d="M23.6127 3.9456C23.427 4.07157 23.2307 4.13232 23.0102 4.08803C22.8694 4.05968 22.7794 3.94964 22.7667 3.8007C22.7551 3.65887 22.7781 3.52108 22.8106 3.38337C22.8839 3.06881 22.9575 2.75463 23.0295 2.43985C23.0516 2.34387 23.0705 2.24782 23.0772 2.14908C23.0832 2.05213 23.0791 1.95706 23.0415 1.86512C23.0247 1.82301 23.0314 1.80745 23.0708 1.79593C23.2269 1.74977 23.3838 1.70863 23.5496 1.71955C23.6004 1.72299 23.6503 1.73137 23.6984 1.74947C23.8007 1.78904 23.8486 1.87006 23.836 1.97763C23.8297 2.03156 23.8142 2.08363 23.7988 2.13532C23.7002 2.47261 23.6108 2.812 23.543 3.15708C23.5114 3.31821 23.4789 3.47994 23.4877 3.64578C23.4911 3.71251 23.5038 3.77729 23.5306 3.83871C23.548 3.87798 23.5752 3.91074 23.6127 3.9456Z" fill="#ED2329"/>
<path fill-rule="evenodd" clip-rule="evenodd" d="M23.2627 1.0275C23.4402 0.968554 23.6164 0.913123 23.8078 0.947683C23.9496 0.973566 24.0203 1.07298 23.9944 1.21324C23.9865 1.25468 23.9757 1.29463 23.9562 1.33263C23.9284 1.38686 23.8877 1.42988 23.8295 1.44798C23.7017 1.48815 23.5718 1.51934 23.4354 1.50221C23.3969 1.4978 23.3599 1.48785 23.3252 1.46975C23.2804 1.44611 23.257 1.4096 23.2551 1.35851C23.2529 1.30959 23.2662 1.26343 23.277 1.21668C23.299 1.11854 23.299 1.11854 23.2627 1.0275Z" fill="#ED2329"/>
<path fill-rule="evenodd" clip-rule="evenodd" d="M19.9027 0.936078C19.94 0.93548 19.9882 0.94109 20.0347 0.956051C20.1379 0.989339 20.1904 1.06295 20.1856 1.16887C20.1837 1.2172 20.1739 1.26425 20.1563 1.30951C20.1272 1.38364 20.0757 1.43323 19.9974 1.4544C19.878 1.48717 19.759 1.52046 19.6326 1.50303C19.5938 1.49801 19.5562 1.48994 19.5212 1.47408C19.4732 1.45193 19.4466 1.41483 19.4454 1.3606C19.4441 1.31197 19.4539 1.26552 19.4663 1.21877C19.481 1.16364 19.4902 1.10903 19.4615 1.05517C19.452 1.03834 19.4539 1.02742 19.4751 1.01866C19.5667 0.979989 19.7811 0.936078 19.9027 0.936078Z" fill="#ED2329"/>
<path fill-rule="evenodd" clip-rule="evenodd" d="M2.56331 1.64355C2.44076 2.03314 2.32018 2.41681 2.19922 2.80273C2.22165 2.80176 2.23044 2.7871 2.24249 2.77775C2.36406 2.68237 2.49571 2.60353 2.63849 2.54368C2.69056 2.52154 2.7449 2.50411 2.79796 2.48481C2.82448 2.47546 2.83615 2.46387 2.82577 2.43118C2.74581 2.18275 2.66851 1.93402 2.59082 1.685C2.58635 1.67161 2.58415 1.65754 2.56331 1.64355ZM4.38591 1.67641C4.39569 1.82856 4.39849 1.98004 4.38841 2.13182C4.37924 2.27702 4.35461 2.41855 4.29936 2.55417C4.25169 2.67229 4.19106 2.78352 4.10072 2.87583C4.06472 2.91286 4.05971 2.94839 4.07707 2.99552C4.16643 3.24081 4.25358 3.48707 4.34165 3.73265C4.36628 3.80087 4.38462 3.87104 4.39349 3.9424C4.41365 4.10039 4.36287 4.23572 4.2507 4.34822C4.08586 4.51309 3.82947 4.56359 3.61347 4.47479C3.46788 4.41495 3.38201 4.30274 3.33555 4.15777C3.29803 4.03965 3.26074 3.92056 3.22565 3.80125C3.17866 3.64161 3.1341 3.48108 3.08832 3.32092C3.08544 3.31157 3.08105 3.30185 3.07945 3.2922C3.07377 3.25734 3.05263 3.24732 3.01882 3.24889C2.92727 3.2536 2.83632 3.26078 2.74568 3.2735C2.51354 3.30626 2.29564 3.37733 2.09927 3.50764C2.01022 3.56651 1.95307 3.64408 1.92965 3.74791C1.89555 3.90066 1.84538 4.0493 1.79043 4.19577C1.71434 4.39999 1.55988 4.50344 1.34077 4.51594C1.23717 4.52184 1.13834 4.50531 1.04512 4.45916C0.799179 4.3376 0.690194 4.10451 0.767878 3.84015C0.816535 3.67498 0.879365 3.51355 0.936207 3.35055C1.21632 2.54856 1.51759 1.75435 1.79672 0.952369C1.88418 0.701173 2.06736 0.569666 2.32982 0.540642C2.50603 0.520669 2.68285 0.5182 2.85876 0.550591C2.90423 0.559343 2.95031 0.569666 2.99449 0.583056C3.13948 0.626069 3.2418 0.716733 3.30053 0.855422C3.37503 1.03091 3.43824 1.21112 3.50266 1.39058C3.59323 1.64185 3.68266 1.89334 3.77262 2.14461C3.79218 2.19885 3.80324 2.20319 3.85698 2.17296C4.0654 2.05574 4.24222 1.90613 4.36189 1.69668C4.36666 1.6889 4.36916 1.67738 4.38591 1.67641Z" fill="white"/>
<path fill-rule="evenodd" clip-rule="evenodd" d="M16.2126 2.48454C16.2058 2.48034 16.2 2.47694 16.1942 2.47374C16.1968 2.47034 16.2008 2.46374 16.2034 2.46454C16.21 2.46614 16.2158 2.47034 16.2226 2.47374C16.2192 2.47694 16.2158 2.48034 16.2126 2.48454Z" fill="white"/>
<path fill-rule="evenodd" clip-rule="evenodd" d="M2.56331 1.64372C2.58415 1.65771 2.58635 1.67177 2.59082 1.68516C2.66851 1.93419 2.74581 2.18292 2.82577 2.43135C2.83615 2.46404 2.82448 2.47563 2.79796 2.48498C2.7449 2.50428 2.69056 2.52171 2.63849 2.54385C2.49571 2.6037 2.36406 2.68254 2.24249 2.77792C2.23044 2.78727 2.22165 2.80193 2.19922 2.8029C2.32018 2.41698 2.44076 2.03331 2.56331 1.64372Z" fill="#ED2329"/>
</svg>
