<svg width="30" height="10" viewBox="0 0 30 10" fill="none" xmlns="http://www.w3.org/2000/svg">
<path d="M5.67036 0.0639343C5.25844 0.0639343 5.01172 0.395015 5.01172 0.85215V4.41877C5.01172 4.87676 5.25844 5.20708 5.67036 5.20708C6.08143 5.20708 6.32937 4.87676 6.32937 4.41877V0.85215C6.32937 0.395015 6.08143 0.0639343 5.67036 0.0639343Z" fill="#005AA9"/>
<path d="M8.76609 1.48418H8.45959V1.27734C8.45959 1.06216 8.58262 0.97398 8.92735 1.00995C9.27246 1.04593 9.35023 0.816603 9.35023 0.630274C9.35023 0.486755 9.31697 0.406833 9.20218 0.289796C8.97261 0.0563876 8.39212 0.0638862 8.39212 0.0638862C8.39212 0.0638862 7.86888 0.0386375 7.51009 0.32653C7.15243 0.614043 7.17866 1.12073 7.17866 1.12073V1.48418H7.12282C6.88387 1.48418 6.62891 1.62769 6.62891 1.93305C6.62891 2.23917 6.91976 2.38278 7.15243 2.38278H7.17782V4.51251C7.17782 4.87871 7.39802 5.20704 7.84002 5.20704C8.28277 5.20704 8.45959 4.88469 8.45959 4.52874V2.38278H8.76609C8.94066 2.38278 9.28267 2.2985 9.28267 1.94852C9.28267 1.59808 9.01525 1.48418 8.76609 1.48418Z" fill="#005AA9"/>
<path fill-rule="evenodd" clip-rule="evenodd" d="M12.0002 1.60139C12.1134 1.45113 12.2833 1.35934 12.498 1.35934C12.9103 1.35934 13.1567 1.68957 13.1567 2.14756V4.46684C13.1567 4.92483 12.9103 5.25505 12.498 5.25505C12.279 5.25505 12.1068 5.15975 11.9939 5.00352C11.769 5.15339 11.4973 5.25505 11.2104 5.25505C9.98635 5.25505 9.27148 4.43637 9.27148 3.37203C9.27148 2.39122 9.86181 1.35934 11.208 1.35934C11.525 1.35934 11.7901 1.45939 12.0002 1.60139ZM11.2457 2.33102C10.9747 2.33102 10.5703 2.47815 10.5703 3.32171C10.5703 4.16612 10.9416 4.30926 11.2515 4.30926C11.2676 4.30926 11.2836 4.30926 11.2989 4.30774C11.5764 4.29426 11.8391 4.13925 11.8391 3.35806C11.8391 2.59595 11.6069 2.36615 11.3176 2.3353C11.2942 2.33254 11.2711 2.33102 11.2457 2.33102Z" fill="#005AA9"/>
<path fill-rule="evenodd" clip-rule="evenodd" d="M3.26433 0.623282C3.32252 0.774015 4.43684 3.98507 4.50674 4.19541C4.57851 4.40385 4.62658 4.64913 4.50674 4.84846C4.38802 5.04779 4.17606 5.20716 3.90113 5.20716C3.62508 5.20716 3.37405 5.08728 3.27098 4.74443C3.16828 4.40186 3.116 4.23062 3.116 4.23062H1.5266C1.5266 4.23062 1.47544 4.40186 1.37115 4.74443C1.26808 5.08728 1.0178 5.20716 0.741839 5.20716C0.46579 5.20716 0.254958 5.04779 0.135486 4.84846C0.01564 4.64913 0.063616 4.40385 0.135486 4.19541C0.205764 3.98507 1.31961 0.774015 1.37818 0.623282C1.43637 0.473783 1.49025 0.361872 1.62218 0.263345C1.84473 0.0957166 2.32186 0.103215 2.32186 0.103215C2.32186 0.103215 2.79741 0.0957166 3.02154 0.263345C3.15235 0.361872 3.20698 0.473783 3.26433 0.623282ZM2.32155 1.50085L1.82764 3.12512H2.81424L2.32155 1.50085Z" fill="#005AA9"/>
<path d="M18.8618 1.31844C18.1544 1.31844 17.4633 2.28111 17.2212 2.65643C17.2337 2.56151 17.2548 2.43935 17.2895 2.28947C17.3466 2.04068 17.3813 1.70134 17.2212 1.49527C17.1283 1.37824 16.9854 1.31844 16.7948 1.31844C16.1398 1.31844 15.4947 2.16721 15.2191 2.58087C15.2527 2.45634 15.2909 2.31035 15.3152 2.21268C15.3624 2.02008 15.4417 1.69622 15.3081 1.51226C15.2304 1.40586 15.0965 1.3509 14.9076 1.3509C14.6018 1.3509 14.2582 1.49366 14.2434 1.49964L14.1684 1.52773L14.2364 1.56722C14.2371 1.56883 14.3293 1.6554 14.2574 2.16721C14.1345 3.05073 13.8455 4.11032 13.7269 4.52436C13.6632 4.7459 13.6769 4.92027 13.7671 5.04291C13.8541 5.15919 14.0119 5.22326 14.2129 5.22326C14.5003 5.22326 14.756 5.12046 14.7681 5.11647L14.811 5.09749L14.7853 5.05715C14.7834 5.05477 14.6382 4.83247 14.8263 4.40894C15.4806 2.93369 16.007 2.34642 16.1538 2.24353C16.1846 2.22302 16.2135 2.21116 16.2335 2.21116C16.2486 2.21116 16.256 2.2178 16.2604 2.22217C16.2728 2.23641 16.2783 2.2665 16.274 2.30323C16.2182 2.81191 16.0077 3.67919 15.8688 4.2527C15.8394 4.37534 15.8129 4.48288 15.7931 4.56831C15.7407 4.79213 15.7574 4.96261 15.8437 5.07176C15.9211 5.17266 16.0554 5.22326 16.2416 5.22326C16.5348 5.22326 16.7937 5.11647 16.8046 5.11211L16.8526 5.09151L16.8206 5.05117C16.8195 5.04879 16.6773 4.86133 16.8714 4.40419C17.361 3.26078 18.0126 2.37679 18.1848 2.25027C18.2398 2.2103 18.2699 2.20319 18.2836 2.20319C18.293 2.20319 18.3 2.20594 18.3054 2.21268C18.3222 2.23403 18.3258 2.2851 18.3168 2.3393C18.3125 2.36256 18.2964 2.43422 18.2734 2.54015C18.1899 2.93018 18.0162 3.74174 17.9181 4.30054C17.8572 4.64064 17.892 4.89142 18.0185 5.04566C18.1157 5.16355 18.266 5.22326 18.4631 5.22326C18.7887 5.22326 19.1003 5.01481 19.114 5.0057L19.1547 4.97884L19.1183 4.94438C19.1156 4.94201 18.8806 4.71619 18.9988 4.05375C19.0773 3.61237 19.1815 3.10217 19.2596 2.72999C19.2971 2.5429 19.3284 2.39502 19.3436 2.3112L19.3514 2.27086C19.3904 2.07352 19.4619 1.70486 19.2839 1.48616C19.1945 1.37501 19.0516 1.31844 18.8618 1.31844" fill="#EC1C24"/>
<path fill-rule="evenodd" clip-rule="evenodd" d="M22.5148 1.52428C22.6261 1.4155 22.7861 1.36092 22.9912 1.36092C23.3144 1.36092 23.6345 1.4977 23.6482 1.50368L23.6861 1.51991L23.6677 1.55788C23.663 1.565 23.2664 2.35673 23.1309 3.50099C22.9916 4.67211 23.1984 4.9242 23.2104 4.93874C23.2107 4.93912 23.2109 4.93934 23.2109 4.93941L23.2343 4.96314L23.2148 4.99038C23.2094 4.99987 23.0427 5.22293 22.5675 5.22293C22.3762 5.22293 21.9303 5.15336 21.9303 4.50477C21.9303 4.30734 21.9549 4.06852 21.976 3.90791C21.235 5.08929 20.7301 5.24628 20.3713 5.24628C20.1133 5.24628 19.9251 5.15611 19.797 4.97263C19.6518 4.76532 19.3703 3.9063 19.9626 2.72654C20.2264 2.2041 20.5506 1.81853 20.9269 1.58161C21.2721 1.36443 21.5824 1.31821 21.7835 1.31821C22.1552 1.31821 22.4285 1.47046 22.5148 1.52428ZM20.7625 4.0105C20.7625 4.18259 20.814 4.35582 20.9128 4.35582C20.9608 4.35582 21.0225 4.31899 21.09 4.24866C21.4531 3.87372 21.9544 3.09889 22.3132 2.35851C22.2465 2.27745 21.9658 1.95786 21.673 1.95786C21.5456 1.95786 21.4285 2.02079 21.3278 2.1438C20.8612 2.70972 20.7625 3.81554 20.7625 4.0105Z" fill="#EC1C24"/>
<path d="M26.6792 1.31844C26.1561 1.31844 25.5357 2.19132 25.2741 2.59834C25.3155 2.41875 25.3725 2.16246 25.4225 1.92716C25.4607 1.74842 25.4404 1.60918 25.3643 1.5135C25.2816 1.41146 25.141 1.36077 24.932 1.36077C24.6392 1.36077 24.2804 1.48929 24.2644 1.49451L24.2125 1.51426L24.248 1.55773C24.25 1.55934 24.3609 1.69536 24.2898 2.18619C24.2141 2.71613 23.8858 4.03476 23.7378 4.56318C23.6784 4.77315 23.6917 4.9365 23.7744 5.04803C23.8916 5.20503 24.1177 5.22326 24.2785 5.22326C24.5448 5.22326 24.8165 5.12046 24.8275 5.11647L24.8731 5.09948L24.847 5.05791C24.8454 5.05553 24.7189 4.8507 24.8669 4.46466C25.2612 3.44389 25.7043 2.85225 25.9651 2.65643C26.0296 2.60783 26.0921 2.58287 26.1507 2.58287C26.2978 2.58287 26.3849 2.73872 26.3864 2.73948L26.4111 2.78457L26.4469 2.7486C26.5868 2.61258 26.8295 2.31472 26.9261 2.0478C26.9823 1.89033 27.0615 1.60168 26.9486 1.43832C26.8936 1.35878 26.8034 1.31844 26.6792 1.31844" fill="#EC1C24"/>
<path d="M29.6814 1.792C29.5354 1.84696 29.1759 1.87857 28.696 1.87857C28.641 1.87857 28.5973 1.87743 28.5652 1.87743C28.5926 1.75242 28.6746 1.39685 28.7675 1.06976C28.8287 0.855806 28.8198 0.691689 28.7397 0.584524C28.662 0.479732 28.5207 0.42952 28.3091 0.42952C28.0237 0.42952 27.5981 0.569527 27.5806 0.575412L27.5201 0.596009L27.5646 0.641476C27.7352 0.808725 27.5637 1.61241 27.4817 1.90942C27.4783 1.92565 27.0723 3.52192 27.0723 4.28717C27.0723 4.92237 27.4103 5.24434 28.0772 5.24434C28.3892 5.24434 28.8323 5.14942 29.1395 4.8844C29.2731 4.76974 29.3273 4.61388 29.2969 4.43429C29.2754 4.30065 29.2149 4.20259 29.2122 4.19785L29.1876 4.15789L29.154 4.18949C29.1516 4.19111 29.0076 4.32124 28.7386 4.41692C28.6355 4.45328 28.55 4.47226 28.4762 4.47226C28.3818 4.47226 28.3099 4.44265 28.2423 4.37582C28.083 4.21958 28.1861 3.64883 28.2197 3.46174C28.2704 3.18059 28.3926 2.63679 28.422 2.50504C28.4703 2.50352 28.5723 2.50191 28.7035 2.50191C28.8022 2.50191 28.9002 2.50352 28.9936 2.50504C29.5632 2.51966 29.7252 2.06803 29.7338 1.83073L29.7358 1.77216L29.6814 1.792Z" fill="#EC1C24"/>
<path d="M28.0021 9.07656H0.0625V9.68168H28.0021C28.8622 9.68168 29.5754 9.04733 29.7106 8.2164C29.3177 8.73808 28.6989 9.07656 28.0021 9.07656Z" fill="#FFD300"/>
<path d="M29.7347 6.89944V6.41525H1.79442C0.837894 6.41525 0.0625 7.20034 0.0625 8.16976V8.65537H28.0021C28.959 8.65537 29.7347 7.86877 29.7347 6.89935" fill="#EC1C24"/>
</svg>
