<svg width="30" height="10" viewBox="0 0 30 10" fill="none" xmlns="http://www.w3.org/2000/svg">
<path d="M29.6978 0.667629C29.6978 0.329049 29.4698 0.0628933 29.1383 0.0126806C29.134 0.0118263 29.1293 0.00945329 29.1246 0.00793457H0.591615C0.442064 0.0328036 0.310505 0.0925083 0.203965 0.204514C0.112136 0.300573 0.0587248 0.416091 0.0317383 0.545752V9.00987C0.0575066 9.12577 0.0992982 9.23454 0.178196 9.3251C0.299542 9.46511 0.449935 9.54816 0.636873 9.54816C10.1201 9.54854 19.6036 9.54854 29.0867 9.54854C29.3761 9.54854 29.6416 9.30925 29.6861 9.0111C29.6919 8.96715 29.6982 1.40288 29.6978 0.667629Z" fill="white"/>
<path d="M0.0380859 2.94395V0.546837C0.0646039 0.417081 0.118108 0.301563 0.210219 0.205124C0.317228 0.0931187 0.448787 0.033414 0.598337 0.00854492H29.1313C29.1356 0.0100636 29.1399 0.0129112 29.145 0.0136706C29.4761 0.0638833 29.7037 0.32966 29.704 0.66824C29.704 1.40349 29.704 2.13912 29.7037 2.87428C29.7037 2.94357 29.7017 2.94594 29.6334 2.94594C28.5547 2.9467 27.4762 2.9467 26.3979 2.94784C26.3518 2.94831 26.3339 2.93284 26.3222 2.88814C26.237 2.55867 26.0407 2.32137 25.7338 2.18136C25.5964 2.11852 25.4558 2.06119 25.314 2.00813C24.6148 1.74796 23.8929 1.57273 23.1667 1.41137C22.6236 1.29073 22.0771 1.18593 21.5289 1.09177C21.1756 1.03169 20.8218 0.972743 20.4669 0.921296C20.203 0.883328 19.9394 0.843462 19.6747 0.808247C19.4069 0.772272 19.1395 0.73905 18.8708 0.707726C18.6494 0.681244 18.4273 0.658748 18.2048 0.635777C17.9841 0.612806 17.7635 0.588696 17.5426 0.571326C17.3118 0.553101 17.0815 0.529751 16.8508 0.517886C16.6126 0.505641 16.3756 0.485139 16.1378 0.473653C15.87 0.460554 15.601 0.44793 15.3328 0.445177C15.0157 0.441191 14.6987 0.435306 14.3817 0.450303C14.1794 0.460175 13.9768 0.462927 13.7745 0.474033C13.5595 0.486278 13.3447 0.503648 13.1299 0.520734C12.8913 0.539718 12.6524 0.558227 12.4139 0.581957C12.1246 0.611287 11.8357 0.64413 11.5472 0.677732C11.2738 0.70934 11.0009 0.741803 10.7288 0.778537C10.3938 0.824003 10.06 0.871938 9.72615 0.92291C9.31348 0.986222 8.90044 1.05105 8.48852 1.1211C7.9829 1.20653 7.47849 1.29984 6.97559 1.40112C6.24395 1.549 5.51344 1.70287 4.79624 1.91207C4.50726 1.99589 4.21725 2.07657 3.96341 2.25255C3.7417 2.4068 3.58822 2.60613 3.51757 2.86953C3.49648 2.9467 3.49761 2.94708 3.41796 2.94708C2.51026 2.94708 1.60246 2.94746 0.694758 2.94708C0.47568 2.94708 0.25707 2.94509 0.0380859 2.94395Z" fill="#E42525"/>
<path d="M0.0380859 9.01069V6.62345C0.0622613 6.62307 0.0860619 6.62269 0.110237 6.62269C1.19841 6.62231 2.28649 6.62231 3.37467 6.62231C3.47699 6.62231 3.47615 6.62269 3.48711 6.72435C3.5066 6.90869 3.57454 7.0728 3.67798 7.22468C3.80027 7.40379 3.98449 7.50583 4.1524 7.62685C4.27187 7.71314 4.41477 7.75737 4.55298 7.80606C5.08203 7.99078 5.62467 8.12518 6.16861 8.25219C6.77881 8.39371 7.39294 8.51673 8.00866 8.63025C8.48692 8.71881 8.96603 8.79874 9.44701 8.87031C9.83981 8.92849 10.233 8.98658 10.6273 9.03642C10.9845 9.0815 11.3422 9.12659 11.7009 9.15905C11.9618 9.18278 12.2226 9.21287 12.4837 9.23299C12.7466 9.25359 13.0097 9.27172 13.2728 9.28596C13.602 9.3038 13.9314 9.31643 14.2614 9.32155C14.4738 9.32478 14.6862 9.31804 14.8986 9.31681C15.4069 9.31529 15.9149 9.30305 16.4225 9.27409C16.652 9.26109 16.882 9.25036 17.1112 9.23261C17.4251 9.20765 17.739 9.17766 18.0529 9.14757C18.4526 9.1096 18.8521 9.06214 19.2511 9.01231C19.8641 8.93599 20.4755 8.84506 21.0846 8.74178C21.81 8.61877 22.5323 8.47999 23.2491 8.3135C23.7875 8.18887 24.3216 8.04925 24.8495 7.88399C25.1235 7.79856 25.3922 7.6989 25.66 7.59562C26.0669 7.43825 26.2988 7.13887 26.3503 6.69863C26.3585 6.62507 26.3608 6.62269 26.4374 6.62269C27.4966 6.62231 28.5558 6.62231 29.615 6.62269C29.7017 6.62269 29.7017 6.62269 29.7017 6.71325C29.7017 7.43587 29.7017 8.15803 29.7022 8.88065C29.7022 8.9245 29.6986 8.96845 29.6919 9.01193C29.6483 9.31054 29.382 9.54984 29.0926 9.54984C19.6095 9.54984 10.1267 9.54984 0.643596 9.54936C0.456189 9.54936 0.30589 9.46593 0.184075 9.32592C0.105552 9.23537 0.0638543 9.12659 0.0380859 9.01069" fill="#F8EC23"/>
<path d="M0.0380859 3.34524C0.0622614 3.34448 0.086062 3.34249 0.110237 3.34249H3.38835C3.40278 3.34249 3.41721 3.34373 3.43164 3.34249C3.46762 3.34012 3.48121 3.35834 3.47887 3.3927C3.47849 3.40106 3.47887 3.40894 3.47887 3.41767V6.1806C3.47887 6.24904 3.47699 6.25179 3.40784 6.25179C2.28462 6.25179 1.16131 6.25141 0.0380859 6.25141V3.34524Z" fill="#354DA0"/>
<path fill-rule="evenodd" clip-rule="evenodd" d="M4.03235 4.4262C4.03241 4.57851 4.03247 4.73082 4.03247 4.88312H4.03322V6.52685C4.03322 6.60754 4.04962 6.68585 4.07586 6.7614C4.16993 7.03544 4.38152 7.19329 4.62168 7.31906C4.71677 7.36912 4.82009 7.40129 4.92277 7.43325C4.92795 7.43486 4.93312 7.43647 4.9383 7.43809C5.53247 7.62432 6.14004 7.75484 6.74874 7.87785C7.33551 7.99688 7.92546 8.10054 8.51654 8.19508C8.97063 8.26826 9.42631 8.33432 9.88227 8.39517C10.3633 8.45924 10.8463 8.51619 11.3292 8.56602C11.7403 8.60912 12.1518 8.64671 12.5641 8.67717C12.9764 8.70764 13.3891 8.73451 13.8026 8.74438C14.1353 8.75235 14.4679 8.75909 14.8009 8.75197C14.9384 8.74918 15.0758 8.74786 15.2133 8.74653C15.4686 8.74407 15.7238 8.74161 15.9789 8.72976C16.0507 8.72641 16.1225 8.72363 16.1942 8.72086C16.2993 8.7168 16.4042 8.71275 16.509 8.70688C16.8644 8.68629 17.2188 8.6618 17.573 8.63332C17.8791 8.60912 18.1852 8.58064 18.4909 8.54941C18.7323 8.52535 18.9733 8.49665 19.2144 8.46794C19.3023 8.45747 19.3903 8.44699 19.4783 8.43674C19.9211 8.38492 20.3622 8.32322 20.8026 8.25601C21.4784 8.15274 22.1527 8.03684 22.8223 7.89807C23.5024 7.75768 24.1775 7.59983 24.84 7.38901C24.8739 7.37826 24.9074 7.36632 24.9409 7.35439C25.0121 7.32906 25.0832 7.30373 25.1578 7.28973C25.5206 7.2229 25.8009 6.88679 25.8013 6.51461C25.8024 5.4254 25.8021 4.33619 25.8013 3.24699C25.8013 3.08201 25.7489 2.9329 25.6548 2.79887C25.5339 2.6264 25.362 2.52474 25.1699 2.45241C24.7131 2.28155 24.2423 2.16015 23.7687 2.05014C22.5947 1.77772 21.4066 1.58788 20.2139 1.42651C19.7387 1.36197 19.2628 1.30625 18.7857 1.25604C18.3011 1.20459 17.8162 1.15912 17.3302 1.12353C16.9705 1.09705 16.611 1.07132 16.2514 1.05585C15.8656 1.03971 15.4799 1.02462 15.0934 1.02263C14.6526 1.02026 14.2117 1.0326 13.7713 1.05471C13.561 1.06534 13.3509 1.08006 13.1408 1.09619C12.8905 1.11565 12.6403 1.13701 12.3908 1.16026C12.1151 1.18599 11.8395 1.21209 11.5646 1.24256C11.1937 1.2829 10.8232 1.32723 10.4531 1.37431C10.0349 1.42765 9.61755 1.48536 9.20057 1.54592C8.7196 1.61635 8.24012 1.69343 7.76111 1.77572C6.99312 1.90776 6.22747 2.04976 5.46969 2.23172C5.15653 2.3069 4.84422 2.38435 4.5455 2.51012C4.22063 2.64738 4.03369 2.92663 4.03285 3.28372C4.03204 3.66456 4.0322 4.0454 4.03235 4.4262ZM25.1872 4.472C25.1871 4.61434 25.187 4.75668 25.1872 4.89898C25.1872 5.0096 25.1871 5.1202 25.187 5.23077C25.1867 5.51983 25.1865 5.80871 25.1879 6.09735C25.1887 6.3018 25.113 6.46677 24.9595 6.59843C24.8869 6.66051 24.803 6.69696 24.7135 6.71233C24.6065 6.73121 24.5018 6.75908 24.397 6.78696C24.3417 6.80169 24.2863 6.81642 24.2306 6.82984C23.7184 6.95239 23.2014 7.0493 22.683 7.13871C22.2406 7.21427 21.7962 7.2791 21.3519 7.34004C21.0286 7.38465 20.7046 7.42385 20.3797 7.46144C20.0319 7.50216 19.6832 7.54089 19.3346 7.57611C19.0336 7.6062 18.7325 7.6323 18.4312 7.65717C18.0946 7.68488 17.7576 7.71061 17.4207 7.7331C17.2432 7.74496 17.0654 7.75366 16.8878 7.76237C16.8037 7.76649 16.7196 7.77061 16.6355 7.77506C16.0117 7.8079 15.3873 7.8209 14.7631 7.81701C14.3476 7.81464 13.933 7.8004 13.5183 7.7762C13.4483 7.77224 13.3782 7.76839 13.3081 7.76455C13.0842 7.75226 12.8604 7.73997 12.6368 7.72399C12.2889 7.69874 11.941 7.66941 11.5936 7.6398C11.2937 7.61369 10.9942 7.58721 10.6951 7.55788C10.4004 7.52865 10.1064 7.49666 9.81236 7.4642C9.51954 7.43173 9.22719 7.39851 8.93511 7.36292C8.69243 7.33365 8.44975 7.30201 8.20707 7.27037C8.15458 7.26353 8.1021 7.25668 8.04962 7.24987C7.67987 7.20155 7.31049 7.14821 6.94195 7.08926C6.91726 7.08531 6.89256 7.08137 6.86787 7.07742C6.346 6.99407 5.82448 6.91078 5.31227 6.77564C5.22484 6.75267 5.13817 6.72818 5.05187 6.70246C4.79812 6.62728 4.62046 6.39122 4.62008 6.12345C4.61887 5.30638 4.61887 4.48959 4.62008 3.67214C4.62046 3.40598 4.79184 3.17732 5.04718 3.09389C5.37083 2.98796 5.70432 2.92265 6.03809 2.86019C6.58195 2.75853 7.12899 2.67424 7.67677 2.59755C8.1675 2.52873 8.65869 2.46305 9.15101 2.40733C9.28008 2.39282 9.40916 2.37793 9.53828 2.36304C9.80359 2.33244 10.069 2.30183 10.3348 2.27444C10.7288 2.23448 11.1227 2.19651 11.5163 2.16168C11.9055 2.12732 12.2951 2.09723 12.6852 2.06913C12.9964 2.04625 13.308 2.02964 13.6199 2.0154C13.955 2.00022 14.2901 1.99265 14.6252 1.98508C14.6567 1.98437 14.6882 1.98366 14.7197 1.98294C15.0202 1.97637 15.3204 1.98421 15.6207 1.99204C15.7371 1.99508 15.8534 1.99811 15.9699 2.00031C16.2721 2.00629 16.5743 2.02091 16.8761 2.03913C16.9379 2.04275 16.9998 2.04627 17.0616 2.0498C17.3307 2.06512 17.5995 2.08043 17.8681 2.10359C18.0117 2.11565 18.1553 2.1264 18.299 2.13714C18.4616 2.14931 18.6241 2.16147 18.7864 2.17553C19.0785 2.20126 19.3697 2.23011 19.661 2.2602C19.9679 2.29181 20.2752 2.32427 20.5817 2.36063C20.9248 2.40182 21.268 2.44606 21.6108 2.49076C22.0157 2.5442 22.4197 2.60505 22.8223 2.67349C23.4333 2.77752 24.042 2.89066 24.6394 3.0619L24.6509 3.06519C24.7749 3.10073 24.8965 3.13556 24.9935 3.22801C25.1149 3.34429 25.1852 3.48667 25.186 3.65629C25.1875 3.92812 25.1873 4.20008 25.1872 4.472Z" fill="#E42525"/>
<path d="M26.4353 3.34268H29.6216C29.7028 3.34268 29.7032 3.34306 29.7032 3.42298V6.1713C29.7032 6.25037 29.7017 6.2516 29.6259 6.2516H26.4345C26.3568 6.2516 26.3564 6.25122 26.3564 6.17291V3.4245C26.3564 3.34306 26.3564 3.34268 26.4353 3.34268Z" fill="#354DA0"/>
<path fill-rule="evenodd" clip-rule="evenodd" d="M14.0642 4.7795C13.368 4.75215 12.764 5.3074 12.7627 6.0255C12.7569 6.7041 13.3137 7.27149 13.9934 7.27847C14.6764 7.28544 15.2451 6.7355 15.2623 6.07029C15.2806 5.35694 14.7083 4.80448 14.0642 4.7795ZM15.0579 6.02897C15.052 6.61394 14.5886 7.07444 14.0092 7.07207C13.4301 7.07039 12.9647 6.60292 12.9665 6.02325C12.9677 5.45224 13.4442 4.97667 14.0117 4.9789C14.5873 4.98127 15.0639 5.45977 15.0579 6.02897Z" fill="#E42525"/>
<path fill-rule="evenodd" clip-rule="evenodd" d="M24.3597 3.80311C24.4155 3.80349 24.4194 3.80947 24.4003 3.86281C24.324 4.07455 24.2472 4.28679 24.1706 4.49875C24.1476 4.56236 24.1246 4.62594 24.1016 4.68947C24.0797 4.74955 24.0809 4.75117 24.1453 4.75155C24.1695 4.75155 24.1936 4.75164 24.2177 4.75174C24.2418 4.75183 24.2659 4.75193 24.2902 4.75193C24.3167 4.75155 24.3257 4.76218 24.3152 4.78828C24.2613 4.91728 24.2078 5.04656 24.1547 5.17593C24.1449 5.19966 24.1258 5.20479 24.1035 5.20356C24.0899 5.20302 24.0762 5.20256 24.0626 5.20211C24.0281 5.20096 23.9935 5.19981 23.9591 5.19729C23.9236 5.19454 23.9029 5.20754 23.8888 5.24152C23.8503 5.33599 23.8113 5.42997 23.7723 5.52395C23.7321 5.62081 23.6918 5.71766 23.6522 5.81503C23.6104 5.91631 23.5796 6.02034 23.587 6.13263C23.5944 6.25052 23.6683 6.31175 23.7845 6.29514C23.8771 6.2809 23.9611 6.24492 24.0418 6.1987C24.1148 6.1575 24.1851 6.11128 24.2516 6.05945C24.2769 6.03933 24.2948 6.04047 24.3159 6.06657C24.3632 6.12655 24.3864 6.14709 24.3844 6.16489C24.3825 6.18208 24.3573 6.1967 24.3078 6.24179C24.0633 6.46362 23.7764 6.58388 23.4449 6.57363C23.2821 6.56851 23.1298 6.5238 23.0174 6.39167C23.0014 6.37306 22.9866 6.37107 22.967 6.38417C22.7664 6.52105 22.5348 6.54392 22.3037 6.56613C22.2923 6.5672 22.2809 6.56835 22.2695 6.5695C22.2008 6.57642 22.1318 6.58336 22.0631 6.57278C21.907 6.54791 21.7797 6.46922 21.6751 6.35171C21.6455 6.31847 21.6348 6.30409 21.6236 6.30369C21.6121 6.30328 21.6001 6.31747 21.567 6.34108C21.394 6.46409 21.2104 6.56215 20.9996 6.60049C20.881 6.62223 20.7622 6.6191 20.6447 6.59261C20.4101 6.53955 20.3097 6.37942 20.353 6.12988C20.3886 5.92732 20.478 5.74697 20.576 5.57023C20.5772 5.56816 20.5783 5.56609 20.5794 5.56402C20.5932 5.53884 20.6067 5.51398 20.6092 5.48442C20.6131 5.42548 20.5807 5.38751 20.5229 5.38314C20.4644 5.37878 20.4159 5.40289 20.3714 5.43696C20.3179 5.47806 20.2777 5.53065 20.2422 5.58722C20.0173 5.94953 19.7257 6.24454 19.3688 6.47235C19.2291 6.56091 19.0779 6.6116 18.91 6.58825C18.8355 6.57752 18.7707 6.54667 18.7296 6.47909C18.7144 6.45451 18.7004 6.46049 18.682 6.47235C18.6177 6.51269 18.5501 6.54705 18.4778 6.57126C18.2303 6.65384 18.0222 6.58739 17.8461 6.40002C17.8075 6.35883 17.7727 6.31298 17.747 6.26191C17.7322 6.23192 17.7129 6.22594 17.6814 6.22993C17.5794 6.24378 17.4877 6.2845 17.4084 6.34696C17.3071 6.42698 17.194 6.48499 17.0808 6.543C17.0592 6.55408 17.0376 6.56515 17.0161 6.57638C16.9626 6.60486 16.904 6.61672 16.8438 6.62024C16.7694 6.6246 16.6889 6.56139 16.6537 6.47159C16.6119 6.36357 16.6209 6.25366 16.6429 6.14412C16.6674 6.01987 16.7092 5.90207 16.7627 5.78817C16.7947 5.72011 16.8173 5.6493 16.8279 5.57422C16.8321 5.54451 16.8306 5.51565 16.8224 5.48756C16.8045 5.42424 16.749 5.39776 16.6897 5.42387C16.644 5.44446 16.6104 5.48044 16.5831 5.52078C16.4953 5.65053 16.4175 5.78542 16.3625 5.93254C16.2836 6.14326 16.2059 6.3537 16.1302 6.56528C16.1149 6.60799 16.0915 6.62308 16.0486 6.62261C15.9612 6.62174 15.8738 6.62187 15.7865 6.62199C15.7209 6.62208 15.6554 6.62218 15.5898 6.62185C15.5305 6.62185 15.5266 6.61549 15.548 6.56015C15.5859 6.46176 15.6237 6.36333 15.6615 6.26487C15.7397 6.06099 15.818 5.85703 15.8974 5.65329C15.9194 5.59795 15.9167 5.54527 15.8951 5.4923C15.8686 5.42624 15.8108 5.41048 15.7546 5.45471C15.7003 5.49667 15.6687 5.55476 15.6444 5.61807C15.6262 5.66552 15.608 5.71297 15.5898 5.76041C15.4877 6.02611 15.3858 6.29167 15.2857 6.55778C15.2681 6.60486 15.2443 6.62384 15.1943 6.62308C15.094 6.62162 14.9937 6.62178 14.8936 6.62194C14.8312 6.62204 14.7689 6.62214 14.7067 6.62185C14.6368 6.62185 14.6337 6.61634 14.6587 6.54867C14.7159 6.3943 14.7731 6.24 14.8303 6.08568C14.9218 5.8387 15.0134 5.5917 15.1049 5.34442C15.1272 5.28509 15.1206 5.27636 15.0584 5.27522C14.9839 5.27366 14.9143 5.29656 14.8444 5.31956C14.8421 5.32032 14.8398 5.32107 14.8375 5.32183C14.8215 5.32708 14.8055 5.33312 14.7896 5.33916C14.7647 5.34861 14.7397 5.35806 14.7144 5.36454C14.6746 5.37441 14.6684 5.397 14.6751 5.4326C14.6791 5.45268 14.6796 5.47244 14.6802 5.49228C14.6805 5.50488 14.6809 5.51751 14.6821 5.53027C14.6661 5.3559 14.6153 5.1953 14.5337 5.05491C14.5388 5.0638 14.5446 5.07235 14.5504 5.08091C14.56 5.09519 14.5697 5.10946 14.5762 5.12525C14.5923 5.16322 14.6087 5.16682 14.6446 5.1466C14.9031 5.00233 15.1685 4.87333 15.4516 4.78515L15.4536 4.78453C15.5061 4.76811 15.5597 4.75134 15.6168 4.76503C15.7132 4.78828 15.7761 4.84447 15.801 4.94376C15.8155 5.00147 15.8198 5.00109 15.8651 4.96388C15.9518 4.89431 16.047 4.84049 16.1533 4.80926C16.3746 4.74405 16.5671 4.80727 16.7033 4.99559C16.7342 5.03906 16.7545 5.0383 16.7939 5.00982C16.9063 4.93028 17.0239 4.85995 17.1554 4.816C17.1921 4.80413 17.2293 4.7935 17.2683 4.79151C17.4154 4.78439 17.4983 4.85235 17.5217 4.99995C17.5462 5.14945 17.515 5.29259 17.4702 5.4326C17.4163 5.59947 17.3354 5.75333 17.2496 5.90482C17.23 5.93919 17.2136 5.97402 17.2125 6.01474C17.2101 6.09305 17.2449 6.14089 17.3217 6.14886C17.4581 6.1631 17.579 6.12191 17.6825 6.03021C17.7134 6.00326 17.727 5.9689 17.7275 5.92656C17.7278 5.82452 17.7645 5.73198 17.8082 5.6418C17.9527 5.3428 18.1515 5.09051 18.4368 4.91842C18.6496 4.79027 18.8757 4.75392 19.1131 4.84609C19.1443 4.85833 19.1669 4.85359 19.181 4.82388C19.2103 4.76341 19.2575 4.74955 19.32 4.75231C19.3908 4.75523 19.462 4.75462 19.5332 4.75401C19.5683 4.75371 19.6034 4.75341 19.6385 4.75354C19.7073 4.75392 19.7108 4.75905 19.685 4.82236C19.5414 5.17669 19.4016 5.53264 19.2642 5.88983C19.2458 5.93805 19.2352 5.98627 19.2419 6.03771C19.2497 6.10102 19.2931 6.13064 19.3551 6.11564C19.393 6.10653 19.4282 6.08916 19.4586 6.06495C19.6675 5.90283 19.8662 5.72998 20.0142 5.50578C20.1239 5.34005 20.2 5.16284 20.1872 4.95724C20.1852 4.93265 20.1934 4.91253 20.2078 4.89431C20.2968 4.78002 20.3855 4.66612 20.4737 4.55184C20.4928 4.52687 20.5112 4.51501 20.5334 4.54671C20.6295 4.68112 20.7673 4.71633 20.9204 4.7132C20.9227 4.71311 20.925 4.713 20.9272 4.71289C20.9348 4.71252 20.9421 4.71216 20.9496 4.71282C20.9523 4.71291 20.9551 4.71264 20.958 4.71237C20.9668 4.71153 20.9761 4.71065 20.9805 4.71994C20.9851 4.7301 20.9772 4.73778 20.9704 4.74444C20.969 4.7458 20.9676 4.74712 20.9664 4.74841C20.9358 4.78082 20.9051 4.81313 20.8743 4.84544C20.8436 4.87777 20.8128 4.9101 20.7822 4.94253C20.7424 4.98372 20.7415 5.00271 20.7822 5.04456C20.8458 5.11186 20.9305 5.12648 21.0165 5.13237C21.1468 5.14186 21.1753 5.16407 21.2066 5.29572C21.2277 5.38352 21.2198 5.4662 21.1734 5.54574C21.1158 5.6438 21.0603 5.74372 21.0048 5.84357C20.9963 5.85884 20.9878 5.8741 20.9793 5.88935C20.9527 5.93605 20.9329 5.98589 20.9196 6.03847C20.8887 6.16149 20.9551 6.26239 21.0801 6.27777C21.2397 6.29599 21.378 6.2434 21.5009 6.14288C21.5205 6.12751 21.5286 6.10814 21.5248 6.0828C21.4662 5.69999 21.5888 5.37403 21.8301 5.08453C21.955 4.93389 22.0964 4.81163 22.2919 4.76654C22.4723 4.72544 22.6386 4.74281 22.7745 4.88368C22.8651 4.97736 22.8999 5.09013 22.8752 5.22017C22.8378 5.42662 22.7269 5.58922 22.5785 5.72884C22.4255 5.87274 22.2501 5.98551 22.0714 6.09305C22.0163 6.12627 22.0151 6.13102 22.0612 6.17734C22.1881 6.30273 22.3435 6.32323 22.5125 6.31412C22.7554 6.30188 22.9154 6.16187 23.0522 5.97953C23.1356 5.868 23.2016 5.74821 23.2414 5.61333C23.2656 5.53128 23.2925 5.45015 23.3193 5.36932C23.3319 5.3313 23.3444 5.29334 23.3567 5.25538C23.3738 5.20242 23.3707 5.19805 23.3176 5.19729C23.2742 5.19682 23.2306 5.19644 23.1872 5.19729C23.1552 5.19767 23.1415 5.18856 23.1552 5.15372C23.1875 5.07026 23.2195 4.98684 23.2514 4.9034C23.2666 4.86386 23.2817 4.82432 23.2969 4.78477C23.3055 4.76218 23.3207 4.75193 23.3445 4.75117C23.3627 4.75065 23.3808 4.74947 23.3988 4.74828C23.4241 4.74662 23.4492 4.74497 23.4746 4.74519C23.5144 4.74595 23.5351 4.72896 23.5503 4.69184C23.5981 4.57493 23.6464 4.45825 23.6948 4.34157C23.7598 4.18467 23.8248 4.02779 23.8885 3.8704C23.9087 3.82095 23.9333 3.80035 23.988 3.80197C24.0702 3.80456 24.153 3.80403 24.2358 3.80351C24.2771 3.80324 24.3184 3.80298 24.3597 3.80311ZM21.9359 5.7597C21.9249 5.75056 21.9269 5.73652 21.9289 5.72356L21.9296 5.71851C21.9726 5.46934 22.1011 5.28387 22.3255 5.17035C22.3892 5.13836 22.4294 5.16608 22.4305 5.24154C22.4278 5.28273 22.415 5.32307 22.3927 5.35905C22.2903 5.52829 22.1503 5.65643 21.98 5.75221L21.9742 5.75565C21.9624 5.76288 21.9493 5.77086 21.9359 5.7597ZM18.9388 5.52451C18.8599 5.71388 18.7576 5.88711 18.6155 6.03547C18.5472 6.10666 18.4667 6.14064 18.3703 6.13864C18.3254 6.13789 18.2985 6.1134 18.2883 6.07068C18.2846 6.05452 18.284 6.03802 18.2834 6.02075V6.02075C18.2831 6.01428 18.2829 6.00771 18.2825 6.00101C18.2922 5.83927 18.3598 5.69812 18.4441 5.56362C18.5085 5.4612 18.587 5.37103 18.6881 5.30382C18.7303 5.27573 18.7752 5.25513 18.8244 5.24326C18.9181 5.22229 18.9829 5.27411 18.984 5.37179C18.9847 5.41835 18.9669 5.45937 18.9492 5.50019L18.9492 5.5002C18.9456 5.5083 18.9421 5.51639 18.9388 5.52451Z" fill="#354DA0"/>
<path fill-rule="evenodd" clip-rule="evenodd" d="M12.5255 5.91976C12.5269 5.92435 12.5282 5.92894 12.5292 5.9335C12.5279 5.92893 12.5267 5.92435 12.5255 5.91976ZM12.5231 5.98032C12.5323 5.96579 12.5326 5.9498 12.5292 5.9335C12.5584 6.03994 12.6001 6.14051 12.6563 6.23262C12.656 6.23188 12.6555 6.2314 12.6551 6.23095C12.6546 6.23042 12.6542 6.22993 12.654 6.22911C12.6286 6.19028 12.6098 6.18279 12.5704 6.20851C12.5533 6.21955 12.5363 6.23061 12.5193 6.24167C12.3792 6.33285 12.2393 6.4239 12.0906 6.50077C11.9773 6.56009 11.861 6.6123 11.7333 6.63052C11.6108 6.64827 11.5053 6.61942 11.4389 6.50314C11.4233 6.4759 11.4124 6.47865 11.3925 6.49801C11.2805 6.61068 11.145 6.6534 10.988 6.64514L10.9826 6.64486C10.8869 6.63985 10.7936 6.63497 10.7108 6.5787C10.6476 6.53522 10.5925 6.48254 10.5469 6.42132C10.5144 6.37898 10.482 6.33542 10.4566 6.28843C10.4321 6.24334 10.409 6.24448 10.3692 6.26897C10.3467 6.2831 10.3242 6.29733 10.3017 6.31156C10.1738 6.39252 10.0459 6.47347 9.90808 6.53636C9.81437 6.57908 9.71833 6.62018 9.61094 6.59967C9.40836 6.56171 9.31184 6.4217 9.3408 6.21487C9.36617 6.03536 9.43994 5.87389 9.51374 5.71233L9.51724 5.70467C9.54067 5.65285 9.56409 5.60026 9.56878 5.54207C9.57468 5.46339 9.53598 5.43453 9.46533 5.46737C9.3572 5.51797 9.28926 5.60691 9.24391 5.71568C9.1959 5.83106 9.14769 5.94623 9.09941 6.06157C9.07353 6.12339 9.04764 6.18526 9.02174 6.24724C9.0084 6.27924 8.99492 6.31125 8.98142 6.3433C8.95072 6.41619 8.91994 6.48926 8.89065 6.56284C8.87772 6.59455 8.85898 6.60717 8.82506 6.60679C8.73344 6.60605 8.64197 6.6062 8.55049 6.60636C8.49066 6.60646 8.43084 6.60656 8.37097 6.60641C8.31316 6.60594 8.30969 6.60005 8.33068 6.54348C8.35836 6.4701 8.38606 6.39675 8.41376 6.32341C8.48847 6.12561 8.56315 5.92789 8.63718 5.72992C8.63927 5.72443 8.64139 5.71894 8.64351 5.71346C8.66196 5.66569 8.68038 5.618 8.68206 5.5658C8.68525 5.48275 8.65283 5.45114 8.57121 5.46177C8.49907 5.47149 8.43462 5.50355 8.37061 5.5354C8.36395 5.53871 8.35729 5.54202 8.35064 5.5453C8.19762 5.62162 8.0625 5.72442 7.93366 5.83557C7.87127 5.88902 7.80996 5.94392 7.74866 5.99881C7.64581 6.09091 7.54297 6.18299 7.43506 6.26821C7.18834 6.46441 6.9166 6.61391 6.60186 6.66849C6.4063 6.70209 6.21655 6.67124 6.02989 6.61628C5.83311 6.55857 5.65002 6.47267 5.49578 6.33266C5.42672 6.26983 5.36966 6.19788 5.32712 6.11397C5.31391 6.08749 5.31578 6.06651 5.3318 6.04164C5.39674 5.94203 5.46093 5.8421 5.52513 5.74217C5.55477 5.69603 5.58441 5.64989 5.61413 5.60377C5.61564 5.60141 5.61703 5.59881 5.61844 5.59619C5.62361 5.58659 5.62894 5.57669 5.64027 5.57729C5.6544 5.57818 5.6579 5.59008 5.6612 5.60131C5.6621 5.60438 5.66299 5.6074 5.66407 5.61013C5.75075 5.81497 5.87022 5.99418 6.05454 6.12185C6.183 6.21126 6.32234 6.23698 6.47695 6.2049C7.02043 6.09384 7.36366 5.75213 7.55453 5.24194C7.68343 4.89744 7.80638 4.5509 7.92933 4.20438C7.9762 4.07227 8.02308 3.94016 8.07028 3.80817C8.09024 3.75207 8.08752 3.74695 8.03205 3.7497C7.7857 3.76194 7.54638 3.80627 7.31878 3.90708C7.27644 3.92551 7.23703 3.94925 7.19759 3.97301C7.19295 3.97581 7.18831 3.97861 7.18366 3.9814C6.95334 4.1215 6.96458 4.34608 7.07318 4.52766C7.14149 4.64271 7.24222 4.71826 7.37884 4.73563C7.41904 4.74076 7.42532 4.75386 7.39796 4.78632C7.32534 4.87251 7.24653 4.9512 7.14889 5.00777C6.94818 5.12329 6.75337 5.10582 6.56831 4.97331C6.43094 4.87488 6.32824 4.74437 6.27277 4.58338C6.19584 4.36231 6.25131 4.16611 6.40789 3.99849C6.55041 3.84699 6.72723 3.74571 6.91267 3.66104C7.29179 3.48706 7.69237 3.3834 8.09923 3.30396C8.35064 3.25488 8.60363 3.21729 8.85898 3.19556C8.92419 3.18967 8.92494 3.19043 8.90114 3.25175L8.16679 5.1454C8.15749 5.16922 8.14867 5.19304 8.13981 5.21699C8.13529 5.22922 8.13075 5.24148 8.12612 5.2538C8.1294 5.25578 8.13236 5.25776 8.13531 5.25974C8.1359 5.26013 8.13649 5.26053 8.13709 5.26092C8.16528 5.24232 8.19341 5.22366 8.22153 5.20501C8.29155 5.15856 8.36152 5.11216 8.43225 5.06672C8.45401 5.05272 8.4757 5.03859 8.4974 5.02445C8.6205 4.94423 8.74373 4.86394 8.88043 4.80882C9.10691 4.7175 9.25881 4.76496 9.40049 4.9662C9.42719 5.00471 9.44038 5.02381 9.45654 5.0268C9.47277 5.0298 9.49201 5.01655 9.53092 4.9904C9.66557 4.89975 9.80463 4.81755 9.9658 4.78585C10.0771 4.76449 10.1861 4.76886 10.2564 4.87526C10.3223 4.97493 10.3426 5.09282 10.304 5.20312C10.2142 5.46139 10.1193 5.71806 10.0155 5.97083C9.9643 6.09498 9.99906 6.14719 10.1299 6.13181C10.2321 6.11947 10.3243 6.07723 10.4063 6.01316C10.4348 5.99057 10.448 5.96048 10.4535 5.92536C10.5019 5.59229 10.6819 5.33012 10.8986 5.09083C11.0298 4.94607 11.2046 4.87213 11.3877 4.81831C11.5486 4.77123 11.7099 4.78309 11.8699 4.81869C11.874 4.81962 11.8779 4.82051 11.8816 4.82135C11.9472 4.83639 11.9477 4.8365 11.9758 4.76648C11.9912 4.7289 12.0066 4.69132 12.0219 4.65374C12.1303 4.38878 12.2388 4.12368 12.3451 3.858C12.3619 3.81652 12.3846 3.80153 12.4279 3.80229C12.5124 3.80382 12.5969 3.80353 12.6814 3.80323C12.7273 3.80307 12.7732 3.80291 12.8192 3.80305C12.8847 3.80342 12.8878 3.80779 12.864 3.86949C12.6458 4.43789 12.4276 5.00654 12.2094 5.57529C12.157 5.71175 12.1047 5.84822 12.0523 5.98469C12.0113 6.091 12.0429 6.13694 12.1577 6.13257C12.24 6.12974 12.3131 6.09451 12.3852 6.0597C12.3928 6.05604 12.4004 6.05238 12.408 6.04876C12.4179 6.04394 12.4286 6.03956 12.4394 6.03514C12.472 6.02173 12.5055 6.00795 12.5231 5.98032ZM11.2685 6.08157C11.4262 5.94792 11.5453 5.78381 11.6374 5.59871C11.6635 5.54613 11.6738 5.49117 11.6749 5.43336C11.6753 5.40764 11.6738 5.38154 11.6655 5.35629C11.6347 5.25776 11.5516 5.23052 11.4723 5.29421C11.4508 5.3112 11.4312 5.33056 11.4121 5.35069C11.3071 5.4601 11.2298 5.58916 11.1525 5.71828C11.1381 5.74228 11.1237 5.76629 11.1092 5.79017C11.0858 5.82927 11.069 5.87161 11.0584 5.9167C11.044 5.97403 11.0397 6.03297 11.0682 6.08793C11.1037 6.15599 11.1408 6.16662 11.2056 6.12666C11.2271 6.11328 11.2485 6.09866 11.2685 6.08157Z" fill="#354DA0"/>
<path fill-rule="evenodd" clip-rule="evenodd" d="M13.7866 4.49357C13.0903 4.46693 12.4867 5.02146 12.4854 5.7404C12.4792 6.41809 13.0364 6.98557 13.7159 6.99257C14.3995 6.99999 14.9677 6.44984 14.9849 5.7848C15.0035 5.0715 14.4309 4.51874 13.7866 4.49357ZM14.7806 5.74344C14.7741 6.32795 14.3115 6.78838 13.7319 6.78629C13.1521 6.78451 12.6879 6.31709 12.6893 5.7378C12.691 5.16687 13.1668 4.69151 13.7341 4.69328C14.3102 4.6959 14.7868 5.17418 14.7806 5.74344Z" fill="#E42525"/>
<path fill-rule="evenodd" clip-rule="evenodd" d="M14.2801 7.55918C14.9771 7.56168 15.5344 7.012 15.538 6.31598C15.5415 5.62371 14.978 5.0565 14.289 5.05921C13.6052 5.06172 13.0398 5.62455 13.0381 6.30659C13.0355 6.99196 13.5945 7.55646 14.2801 7.55918ZM14.2899 7.20075C13.8036 7.20075 13.4132 6.80242 13.4143 6.30828C13.4151 5.81329 13.8036 5.42353 14.2961 5.42457C14.784 5.42624 15.1709 5.8229 15.1681 6.32038C15.1655 6.80493 14.77 7.20075 14.2899 7.20075Z" fill="#E42525"/>
</svg>
