<svg width="21" height="20" viewBox="0 0 21 20" fill="none" xmlns="http://www.w3.org/2000/svg">
<g mask="url(#mask0_13087_49650)">
<path fill-rule="evenodd" clip-rule="evenodd" d="M18.1849 20.0002H1.88431C0.847979 20.0002 0 19.1553 0 18.1224V1.87806C0 0.845299 0.847979 0.000244141 1.88431 0.000244141H18.1849C19.2213 0.000244141 20.0692 0.845299 20.0692 1.87806V18.1224C20.0692 19.1553 19.2213 20.0002 18.1849 20.0002Z" fill="#E82529"/>
</g>
<path fill-rule="evenodd" clip-rule="evenodd" d="M4.32975 3.76611H5.28058C5.35298 3.76611 5.40859 3.83007 5.39828 3.90146L4.95669 6.95418C4.93969 7.07168 5.03119 7.17689 5.15027 7.17689H6.81829C6.86567 7.17689 6.90198 7.21883 6.89508 7.2655L6.76568 8.14229C6.75899 8.18784 6.71976 8.22166 6.67349 8.22166H4.78743C4.22641 8.22166 3.68838 7.76313 3.76754 7.2096L4.21192 3.86903C4.21972 3.81014 4.2701 3.76611 4.32975 3.76611Z" fill="#FEFEFE"/>
<path fill-rule="evenodd" clip-rule="evenodd" d="M7.50001 4.98399L7.06477 8.09727C7.05787 8.14664 7.09633 8.19074 7.14637 8.19074H8.06647C8.1319 8.19074 8.18737 8.14268 8.19643 8.0781L8.62742 5.01545C8.63662 4.94489 8.5815 4.88232 8.51007 4.88232H7.61722C7.55813 4.88232 7.50816 4.92573 7.50001 4.98399Z" fill="#FEFEFE"/>
<path fill-rule="evenodd" clip-rule="evenodd" d="M9.39917 7.9525C9.11528 7.94229 8.98246 8.03097 8.81494 8.13055C8.85536 7.84986 9.17235 5.66247 9.20127 5.5281C9.23186 5.38484 9.25966 5.14582 9.38607 5.02526C9.53422 4.88374 9.76354 4.80277 10.9045 4.79908C12.0692 4.79533 12.2949 5.63067 12.2331 6.17344C12.1804 6.63801 12.0071 7.78584 11.9582 8.10653C11.9507 8.15528 11.9089 8.19118 11.8596 8.19118H10.9599C10.894 8.19118 10.8434 8.13326 10.8526 8.06826C10.8981 7.74757 11.0201 6.89266 11.0615 6.6444C11.1128 6.33732 11.1539 5.99941 11.0717 5.86601C10.9895 5.73289 10.7428 5.63067 10.2701 5.71261L9.92054 8.17597C9.92054 8.17597 9.6956 7.9632 9.39917 7.9525Z" fill="#FEFEFE"/>
<path fill-rule="evenodd" clip-rule="evenodd" d="M13.208 3.58984H14.206C14.2431 3.58984 14.2717 3.62255 14.2666 3.65922L13.6456 8.14247C13.641 8.17574 13.6124 8.20053 13.5787 8.20053H12.5934C12.5524 8.20053 12.5209 8.16449 12.5265 8.12407L13.1473 3.64255C13.1515 3.61234 13.1774 3.58984 13.208 3.58984Z" fill="#FEFEFE"/>
<path fill-rule="evenodd" clip-rule="evenodd" d="M13.981 6.29107L15.1089 4.97477C15.1444 4.93331 15.1964 4.90942 15.2511 4.90942H16.2413C16.3128 4.90942 16.3504 4.9938 16.3026 5.04664L15.1493 6.32211L16.2036 8.58165C16.2423 8.66457 16.1815 8.75943 16.0898 8.75943H15.1948C15.1481 8.75943 15.1056 8.73227 15.0861 8.68998L13.981 6.29107Z" fill="#FEFEFE"/>
<path fill-rule="evenodd" clip-rule="evenodd" d="M8.82028 4.04005C8.73958 4.37928 8.43304 4.6317 8.11208 4.6317C7.79119 4.6317 7.54507 4.35671 7.62583 4.01755C7.70652 3.67832 7.97223 3.40332 8.35305 3.40332C8.67394 3.40332 8.90097 3.70082 8.82028 4.04005Z" fill="#FEFEFE"/>
<path fill-rule="evenodd" clip-rule="evenodd" d="M9.83492 8.98462C9.75423 9.32385 9.44769 9.57628 9.12673 9.57628C8.80584 9.57628 8.55972 9.30129 8.64048 8.96213C8.72117 8.6229 8.98688 8.3479 9.3677 8.3479C9.68859 8.3479 9.91562 8.64539 9.83492 8.98462Z" fill="#FEFEFE"/>
<path fill-rule="evenodd" clip-rule="evenodd" d="M14.6625 13.0382C14.5945 13.3734 14.2848 13.6228 13.9474 13.6226C13.6099 13.6224 13.3375 13.3505 13.4055 13.0153C13.4735 12.6801 13.7392 12.4085 14.1396 12.4087C14.477 12.4089 14.7305 12.703 14.6625 13.0382Z" fill="#FEFEFE"/>
<path fill-rule="evenodd" clip-rule="evenodd" d="M6.16857 11.3689H5.56435C5.54191 11.3689 5.52651 11.3464 5.53473 11.3255L6.06056 9.9954C6.0706 9.97006 6.10809 9.97547 6.11052 10.0026L6.22871 11.3032C6.23191 11.3384 6.20411 11.3689 6.16857 11.3689ZM7.63234 13.0392L6.95809 9.01729C6.92861 8.84146 6.77586 8.71265 6.59699 8.71265H5.92043C5.7141 8.71265 5.52679 8.83271 5.44135 9.01986L3.62505 13.0442C3.59871 13.1026 3.64178 13.1685 3.70596 13.1681L4.64968 13.1626C4.71428 13.1623 4.77239 13.1237 4.79762 13.0645L5.11133 12.329C5.11983 12.309 5.13955 12.296 5.16144 12.296H6.30355C6.33156 12.296 6.35504 12.3172 6.35776 12.3449L6.42591 13.0409C6.43379 13.1219 6.50215 13.1837 6.58382 13.1837H7.50949C7.58649 13.1837 7.64503 13.1148 7.63234 13.0392Z" fill="#FEFEFE"/>
<path fill-rule="evenodd" clip-rule="evenodd" d="M7.18128 13.7677L7.39925 14.4387C7.43842 14.5492 7.46796 14.5737 7.54454 14.5576C7.81986 14.4997 8.48513 14.3038 8.81062 13.865C9.23493 13.2929 9.29311 12.2816 9.36802 11.7675C9.42969 11.3441 9.56474 10.3019 9.61045 9.9477C9.61867 9.88396 9.56885 9.82764 9.50432 9.82764H8.65829C8.58352 9.82764 8.52032 9.88264 8.51029 9.95645C8.44207 10.4568 8.19636 12.256 8.15344 12.5054C8.10354 12.7956 8.09358 13.2135 7.6628 13.4631C7.44782 13.5875 7.33758 13.6113 7.2525 13.6508C7.20923 13.671 7.16031 13.6926 7.18128 13.7677Z" fill="#FEFEFE"/>
<path fill-rule="evenodd" clip-rule="evenodd" d="M11.8373 12.2186C11.8373 12.2186 11.3962 12.3681 11.1844 12.2098C10.9725 12.0515 10.9549 11.7262 11.0785 11.2602C11.202 10.7941 11.5109 10.715 11.6432 10.7062C11.7756 10.6973 12.0244 10.7598 12.0244 10.7598L11.8373 12.2186ZM13.0589 9.94818C12.7737 9.87707 12.294 9.72082 11.523 9.77714C10.8116 9.82908 10.0083 10.157 9.85782 11.5565C9.70737 12.956 10.3494 13.2259 11.2722 13.2659C11.9485 13.2952 12.4792 13.1098 12.7146 13.0086C12.7966 12.9734 12.8537 12.8979 12.8656 12.8098L13.2066 10.1153C13.22 10.0084 13.1663 9.97491 13.0589 9.94818Z" fill="#FEFEFE"/>
<path fill-rule="evenodd" clip-rule="evenodd" d="M13.7173 11.9627L13.9656 9.38258C13.9745 9.29015 14.0523 9.25244 14.1455 9.25244H15.002C15.0818 9.25244 15.1156 9.31279 15.0936 9.41161L14.5708 11.9952C14.5602 12.0452 14.516 12.081 14.4647 12.081H13.8251C13.7612 12.081 13.7112 12.0261 13.7173 11.9627Z" fill="#FEFEFE"/>
<path fill-rule="evenodd" clip-rule="evenodd" d="M3.695 16.7207C3.86461 16.8141 4.06272 16.8413 4.25128 16.7968C5.0024 16.6194 6.66463 16.142 10.1808 15.6355C14.5983 14.9991 17.8599 15.0017 17.8599 15.0017L17.8685 14.9965C17.8685 14.9965 14.9776 14.6007 10.2331 15.0625C5.48845 15.5243 2.84033 16.25 2.84033 16.25L3.695 16.7207Z" fill="#FEFEFE"/>
</svg>
