<svg width="28" height="10" viewBox="0 0 28 9" fill="none" xmlns="http://www.w3.org/2000/svg">
<path fill-rule="evenodd" clip-rule="evenodd" d="M7.71161 7.36332C6.84908 8.1832 5.70032 8.63357 4.5104 8.61834C3.31457 8.6364 2.15911 8.18596 1.29101 7.36332C0.882552 6.96724 0.557808 6.49315 0.336041 5.96918C0.114273 5.44522 0 4.88205 0 4.31308C0 3.74412 0.114273 3.18095 0.336041 2.65698C0.557808 2.13302 0.882552 1.65893 1.29101 1.26284C2.15801 0.435325 3.31565 -0.0180637 4.51404 0.000551365C5.70396 -0.0146731 6.85272 0.435694 7.71524 1.25557C8.12416 1.65139 8.4493 2.1254 8.67136 2.6494C8.89341 3.1734 9.00784 3.7367 9.00784 4.30581C9.00784 4.87492 8.89341 5.43822 8.67136 5.96222C8.4493 6.48622 8.12416 6.96022 7.71524 7.35605M4.51404 1.40472C4.13422 1.40104 3.75759 1.47436 3.40688 1.62024C3.05617 1.76613 2.73865 1.98155 2.47349 2.25352C2.20832 2.52548 2.001 2.84835 1.86404 3.20264C1.72708 3.55693 1.66332 3.93529 1.67661 4.3149C1.67661 4.68656 1.74981 5.05459 1.89204 5.39796C2.03427 5.74133 2.24274 6.05332 2.50554 6.31613C2.76835 6.57893 3.08034 6.7874 3.42371 6.92963C3.76708 7.07186 4.1351 7.14506 4.50676 7.14506C4.87843 7.14506 5.24645 7.07186 5.58982 6.92963C5.93319 6.7874 6.24518 6.57893 6.50799 6.31613C6.77079 6.05332 6.97926 5.74133 7.12149 5.39796C7.26372 5.05459 7.33692 4.68656 7.33692 4.3149C7.35015 3.93653 7.28683 3.55938 7.15076 3.20607C7.0147 2.85276 6.80868 2.53056 6.54508 2.2588C6.28147 1.98704 5.9657 1.77131 5.61669 1.62455C5.26769 1.47779 4.89264 1.40302 4.51404 1.40472ZM18.3374 1.01548L14.8779 8.73111L14.6815 8.69473C13.692 8.51649 13.492 8.26912 13.03 7.2651L10.4363 1.61571H9.46136V0.244279H13.1464V1.61571H12.266L14.3505 6.29019L16.373 1.61571H15.2817V0.244279H18.3374V1.01548ZM26.7042 7.36332C25.8305 8.17018 24.685 8.61824 23.4957 8.61824C22.3065 8.61824 21.1609 8.17018 20.2872 7.36332C19.8788 6.96724 19.554 6.49315 19.3323 5.96918C19.1105 5.44522 18.9962 4.88205 18.9962 4.31308C18.9962 3.74412 19.1105 3.18095 19.3323 2.65698C19.554 2.13302 19.8788 1.65893 20.2872 1.26284C21.1609 0.455991 22.3065 0.00792396 23.4957 0.00792396C24.685 0.00792396 25.8305 0.455991 26.7042 1.26284C27.114 1.65815 27.44 2.13198 27.6626 2.65605C27.8853 3.18012 28 3.74368 28 4.31308C28 4.88248 27.8853 5.44605 27.6626 5.97012C27.44 6.49419 27.114 6.96802 26.7042 7.36332ZM23.5212 1.40472C23.1412 1.40106 22.7644 1.47437 22.4135 1.62021C22.0626 1.76605 21.7449 1.98142 21.4794 2.25333C21.214 2.52524 21.0063 2.84807 20.8689 3.20237C20.7316 3.55667 20.6673 3.93512 20.6801 4.3149C20.6801 4.68656 20.7533 5.05459 20.8956 5.39796C21.0378 5.74133 21.2463 6.05332 21.5091 6.31613C21.7719 6.57893 22.0839 6.7874 22.4272 6.92963C22.7706 7.07186 23.1386 7.14506 23.5103 7.14506C23.8819 7.14506 24.25 7.07186 24.5933 6.92963C24.9367 6.7874 25.2487 6.57893 25.5115 6.31613C25.7743 6.05332 25.9828 5.74133 26.125 5.39796C26.2672 5.05459 26.3404 4.68656 26.3404 4.3149C26.3542 3.93671 26.2913 3.55964 26.1557 3.20634C26.02 2.85304 25.8143 2.53081 25.551 2.25899C25.2877 1.98718 24.9721 1.77139 24.6233 1.62459C24.2745 1.47778 23.8996 1.403 23.5212 1.40472Z" fill="#4B2489"/>
</svg>
