<svg width="34" height="11" viewBox="0 0 34 11" fill="none" xmlns="http://www.w3.org/2000/svg">
<path fill-rule="evenodd" clip-rule="evenodd" d="M17.0859 9.89659C17.0884 9.84692 17.0914 9.76766 17.094 9.65937V7.57545L17.0872 7.3733C17.0855 7.33046 17.0835 7.30127 17.0813 7.28573C17.0791 7.26941 17.0756 7.25552 17.071 7.24288C17.0551 7.19156 17.0206 7.15523 16.9687 7.13318C16.9207 7.11301 16.8496 7.10328 16.7576 7.10265V7.03195L17.9475 7.03156C18.1207 7.03226 18.2768 7.04333 18.4162 7.066C18.5558 7.08806 18.6681 7.1189 18.7541 7.15821C19.0027 7.27623 19.1256 7.47493 19.1242 7.75711C19.1273 8.16117 18.8617 8.41879 18.3118 8.48534L18.2196 8.50025C18.3433 8.5048 18.5103 8.54568 18.5883 8.56389C18.6655 8.5817 18.7411 8.60995 18.8154 8.64856C19.1071 8.79523 19.2509 9.02947 19.248 9.35403C19.2494 9.74765 19.0575 10.0033 18.6679 10.1243C18.5829 10.1487 18.476 10.1678 18.3471 10.1818C18.2176 10.1958 18.0772 10.2029 17.9255 10.2032H16.7576V10.1322C16.8952 10.1304 16.9898 10.1094 17.0317 10.0601C17.049 10.0436 17.0615 10.0251 17.0697 10.0039C17.0781 9.9826 17.0832 9.94587 17.0859 9.89659ZM17.4519 7.12942V8.45176H17.9163C18.4563 8.44854 18.736 8.22434 18.7389 7.77517C18.7427 7.33902 18.4481 7.1262 17.8765 7.12942H17.4519ZM18.832 9.31826C18.8287 9.01033 18.7174 8.79226 18.4952 8.67023C18.4277 8.6361 18.342 8.60957 18.239 8.59066C18.1363 8.5719 18.0226 8.56249 17.8986 8.56217H17.4519V10.1058H17.8986C18.2222 10.1071 18.4588 10.0467 18.6045 9.92022C18.6782 9.85917 18.7343 9.77709 18.7732 9.67351C18.812 9.57008 18.8313 9.45127 18.832 9.31826Z" fill="black"/>
<path fill-rule="evenodd" clip-rule="evenodd" d="M20.9507 10.1129C20.9266 10.0652 20.9095 10.0084 20.9024 9.86301L20.9001 9.82024L20.8715 9.85273C20.8375 9.89063 20.8041 9.92437 20.7716 9.95262C20.7387 9.98111 20.7006 10.0104 20.6578 10.0399C20.5639 10.109 20.4734 10.1577 20.3867 10.1859C20.2998 10.2142 20.2021 10.2278 20.0931 10.2268C19.9033 10.2278 19.7575 10.1827 19.6534 10.0941C19.5953 10.0418 19.5494 9.97601 19.5159 9.89612C19.4827 9.81631 19.4656 9.7307 19.4648 9.6385C19.4669 9.2991 19.6752 9.0804 20.1014 8.98333C20.2141 8.95712 20.3332 8.93562 20.4585 8.91906C20.584 8.90219 20.7267 8.8883 20.8858 8.87755L20.9024 8.58163C20.9024 8.4804 20.8977 8.39823 20.8878 8.33593C20.8779 8.27276 20.8615 8.21759 20.8384 8.17113C20.7753 8.04785 20.6463 7.98884 20.4601 7.98884C20.1612 7.98712 19.9993 8.12962 19.9824 8.4122C19.9809 8.45732 19.9766 8.48918 19.9706 8.50794C19.965 8.52615 19.9551 8.53941 19.9416 8.54914C19.9117 8.56931 19.8643 8.58068 19.7965 8.58163C19.6499 8.58359 19.595 8.54011 19.5975 8.46674C19.5984 8.39015 19.6239 8.31592 19.6748 8.24443C19.7262 8.1727 19.7973 8.11016 19.8894 8.05727C20.0548 7.96546 20.2667 7.91869 20.5265 7.91767C20.8109 7.91869 21.0015 7.98288 21.1057 8.10624C21.1479 8.15787 21.1792 8.22206 21.1993 8.29967C21.2197 8.37689 21.23 8.47522 21.2299 8.59457L21.2295 8.61961L21.2272 8.73543L21.221 9.04116L21.2165 9.4613L21.2121 9.66478C21.2126 9.76052 21.2165 9.8335 21.2233 9.91527C21.2297 9.99476 21.2582 10.0837 21.3219 10.1071C21.3881 10.1317 21.4521 10.1414 21.5737 10.1421C21.663 10.1406 21.7318 10.1301 21.7784 10.1104C21.8314 10.088 21.8642 10.0399 21.8784 9.97177C21.8921 9.90554 21.8979 9.80431 21.8966 9.66902V8.48299C21.8995 8.32141 21.8808 8.20786 21.8349 8.14846C21.7898 8.09062 21.7062 8.06567 21.5913 8.067V8.00367L22.2241 7.95792V8.46188L22.257 8.40286C22.3506 8.23635 22.4568 8.11824 22.5753 8.04754C22.6934 7.97676 22.8416 7.94137 23.02 7.94341C23.2886 7.93948 23.4753 8.02933 23.5846 8.20912C23.6248 8.26946 23.6539 8.34181 23.6713 8.42688C23.6886 8.51186 23.6976 8.62031 23.6969 8.75262V9.66902C23.6953 9.80564 23.701 9.9075 23.7141 9.97373C23.7278 10.0418 23.7599 10.0896 23.8133 10.1113C23.8575 10.1298 23.9603 10.1395 24.0479 10.1417C24.1301 10.1395 24.1935 10.1291 24.2371 10.1104C24.2888 10.0876 24.3203 10.0396 24.3335 9.97177C24.3464 9.9053 24.3521 9.80431 24.3504 9.66902V7.5144C24.3521 7.3908 24.3469 7.2993 24.3345 7.24021C24.3216 7.17846 24.2898 7.13632 24.2379 7.1178C24.1927 7.10194 24.1251 7.09449 24.0363 7.0941V7.03124L24.6944 6.9975C24.6862 7.14377 24.6799 7.29303 24.6756 7.44589C24.6713 7.60519 24.6692 7.7444 24.6692 7.86352V9.31103L25.394 8.51673C25.4966 8.40318 25.5528 8.30776 25.5536 8.23124C25.5587 8.12476 25.4514 8.07673 25.2749 8.06794V8.00501H26.2171V8.06888C26.1605 8.0754 26.1113 8.08583 26.0693 8.10012C26.0238 8.11565 25.9771 8.13802 25.9294 8.1669C25.8811 8.19609 25.8404 8.22308 25.8076 8.24741C25.7742 8.27236 25.7347 8.30807 25.6895 8.35413C25.6443 8.40027 25.5783 8.46996 25.492 8.56381L25.2528 8.82144L25.8791 9.80698C25.9507 9.92374 26.0164 10.0061 26.0769 10.0528C26.1346 10.0977 26.2082 10.1265 26.2968 10.1402V10.2044H25.7238C25.7081 10.1727 25.6864 10.1311 25.6588 10.0801L25.5677 9.9137L25.4978 9.78838L25.0344 9.033L24.67 9.4409L24.6692 9.66902C24.6674 9.80431 24.673 9.90554 24.6862 9.97177C24.6996 10.0399 24.7315 10.0876 24.784 10.1104C24.8301 10.1301 24.8984 10.1406 24.9874 10.1421V10.2044H23.051V10.1421C23.1822 10.1385 23.2723 10.1172 23.3084 10.0691C23.3228 10.0506 23.3338 10.0295 23.3416 10.0058C23.3492 9.98213 23.3539 9.95129 23.3561 9.9137C23.3588 9.88411 23.3614 9.84127 23.3643 9.78516C23.3676 9.72874 23.3692 9.69005 23.3695 9.66933V8.77922C23.3704 8.55989 23.3468 8.39737 23.2971 8.2941C23.2215 8.13158 23.0853 8.05013 22.892 8.04942C22.6763 8.0488 22.5046 8.15136 22.3772 8.35413C22.3292 8.43072 22.2919 8.51806 22.2649 8.61537C22.2383 8.71267 22.2243 8.8088 22.2241 8.90289V9.66902C22.2225 9.80564 22.2281 9.9075 22.2412 9.97373C22.2549 10.0418 22.287 10.0896 22.3404 10.1113C22.3871 10.1308 22.4564 10.1406 22.5469 10.1421V10.2044H21.5945C21.5102 10.2073 21.3491 10.2116 21.2694 10.2106C21.1857 10.2093 21.1454 10.2005 21.0692 10.1947C21.0015 10.1749 20.9731 10.1574 20.9507 10.1129ZM19.8278 9.62519C19.8294 9.76966 19.8645 9.88674 19.9346 9.97502C20.0048 10.0639 20.0997 10.1097 20.2169 10.1116C20.3354 10.1101 20.4475 10.0792 20.5519 10.0195C20.6564 9.95949 20.7389 9.87929 20.7984 9.78002C20.8348 9.71669 20.8613 9.63532 20.8778 9.53628C20.8944 9.43827 20.9026 9.31601 20.9026 9.16966V8.94248C20.6904 8.961 20.5386 8.98109 20.4285 9.00448C20.3174 9.02786 20.2194 9.06129 20.1338 9.10539C19.9312 9.20599 19.8294 9.38059 19.8278 9.62519Z" fill="black"/>
<path fill-rule="evenodd" clip-rule="evenodd" d="M1.19582 8.86829V9.65718C1.19418 9.78368 1.20147 9.87776 1.21756 9.93913C1.23388 10.0004 1.26888 10.041 1.32311 10.0608C1.37709 10.0805 1.46035 10.092 1.57233 10.0939V10.2042H0.333252V10.0939C0.438719 10.092 0.516799 10.0805 0.567728 10.0608C0.618343 10.041 0.651066 10.0004 0.666054 9.93913C0.680886 9.87776 0.687713 9.78368 0.686143 9.65718V7.58299C0.687556 7.45642 0.681043 7.36233 0.666682 7.30096C0.652243 7.23928 0.620619 7.19848 0.57228 7.178C0.523784 7.15751 0.449313 7.14559 0.348868 7.14198V7.03164H1.5291C1.92695 7.03 2.21848 7.10015 2.40352 7.24219C2.58863 7.38438 2.68013 7.60795 2.67794 7.91399C2.67935 8.34355 2.51197 8.62487 2.17602 8.75796C2.08845 8.79202 1.9767 8.81893 1.84103 8.8384C1.70503 8.85786 1.55405 8.86798 1.38792 8.86829H1.19582ZM1.19588 8.74522H1.39991C1.64498 8.7442 1.82523 8.68652 1.94098 8.57124C2.00384 8.5047 2.05147 8.41712 2.08411 8.30907C2.11644 8.20132 2.13292 8.07804 2.13308 7.93915C2.13183 7.41675 1.90292 7.15521 1.44699 7.1545H1.19588V8.74522Z" fill="black"/>
<path fill-rule="evenodd" clip-rule="evenodd" d="M4.76383 9.00156H3.25762C3.2591 9.15537 3.26853 9.28446 3.28575 9.38867C3.30288 9.49257 3.33051 9.5876 3.36839 9.67384C3.49352 9.95296 3.68677 10.0925 3.94833 10.0925C4.09641 10.0915 4.23063 10.05 4.35124 9.96725C4.47161 9.88454 4.57189 9.76541 4.65167 9.61067L4.75834 9.67815C4.65347 9.87802 4.52531 10.0247 4.37404 10.1185C4.22276 10.2119 4.03828 10.2584 3.82026 10.2574C3.47745 10.2531 3.16202 10.1483 2.96458 9.94292C2.76698 9.73748 2.66629 9.45584 2.66235 9.09887C2.66629 8.73899 2.7637 8.45445 2.95449 8.24477C3.14513 8.03525 3.44957 7.92814 3.7777 7.92358C3.99589 7.92398 4.20661 7.97161 4.35616 8.0664C4.50572 8.16081 4.616 8.29939 4.68709 8.48176C4.71029 8.54211 4.728 8.61116 4.73989 8.6894C4.75186 8.76732 4.7599 8.87145 4.76383 9.00156ZM3.26131 8.8795H4.20357C4.19972 8.749 4.19251 8.64385 4.18168 8.56443C4.17111 8.48455 4.15405 8.41353 4.13117 8.35091C4.05148 8.12899 3.92931 8.01897 3.7645 8.02086C3.57961 8.02258 3.44178 8.14649 3.35085 8.39305C3.32756 8.45701 3.30903 8.52708 3.29476 8.60304C3.28066 8.679 3.26943 8.77113 3.26131 8.8795Z" fill="black"/>
<path fill-rule="evenodd" clip-rule="evenodd" d="M4.76524 7.98387L5.56488 7.9287C5.56919 8.00851 5.57233 8.07537 5.57453 8.12951C5.57673 8.18413 5.57775 8.23176 5.57775 8.27327V8.40079C5.75149 8.08321 5.96132 7.9229 6.20718 7.92023C6.31351 7.92227 6.3999 7.95334 6.46614 8.01306C6.53252 8.07309 6.56674 8.14999 6.5687 8.24353C6.56721 8.32138 6.53849 8.38369 6.48261 8.43069C6.42682 8.47738 6.35337 8.50179 6.26258 8.50273C6.15334 8.50626 6.08672 8.46122 6.06263 8.36681C6.04686 8.30835 6.03061 8.2688 6.01366 8.24769C5.99687 8.22658 5.97215 8.21685 5.93919 8.21779H5.9308C5.84706 8.22494 5.76773 8.29148 5.69247 8.41806C5.65857 8.48099 5.63307 8.55044 5.61604 8.62664C5.59901 8.70291 5.59054 8.79088 5.59054 8.89023V9.67707C5.58881 9.8027 5.59501 9.89507 5.60882 9.95486C5.62255 10.0142 5.65394 10.0531 5.7026 10.0716C5.75149 10.0898 5.82737 10.1002 5.9308 10.1025V10.2044H4.74829V10.1025C4.84466 10.1028 4.91614 10.0934 4.96244 10.0743C5.00898 10.0552 5.03903 10.0152 5.05284 9.95486C5.06681 9.89381 5.07293 9.80137 5.07168 9.67707V8.49857C5.07544 8.32326 5.05802 8.2094 5.01894 8.15682C4.97986 8.10425 4.89535 8.08055 4.76524 8.08612V7.98387Z" fill="black"/>
<path fill-rule="evenodd" clip-rule="evenodd" d="M7.51867 7.92864L7.52299 8.34981C7.69524 8.06629 7.94196 7.92315 8.26314 7.92025C8.58975 7.91829 8.79119 8.06691 8.86707 8.36707C8.95935 8.21224 9.06498 8.09901 9.18339 8.02728C9.30181 7.95493 9.44023 7.91923 9.59859 7.92025C9.84892 7.9215 10.0333 8.00398 10.1517 8.16681C10.1978 8.2288 10.2309 8.30406 10.2505 8.39336C10.2702 8.48282 10.2798 8.59872 10.2793 8.74115V9.67701C10.2778 9.80131 10.284 9.89376 10.2979 9.95441C10.3117 10.0152 10.342 10.0551 10.3882 10.0742C10.4348 10.0934 10.5062 10.1027 10.6026 10.1021V10.2043H9.44973V10.1021C9.54193 10.1027 9.61036 10.0934 9.65501 10.0742C9.69974 10.0551 9.72886 10.0152 9.74204 9.95441C9.75569 9.89376 9.76166 9.80131 9.7604 9.67701V8.74539C9.76142 8.5219 9.7338 8.36056 9.67801 8.2616C9.62205 8.16234 9.53181 8.11392 9.4072 8.11588C9.25763 8.11298 9.13137 8.1909 9.02872 8.34981C8.94021 8.48227 8.8961 8.62572 8.89681 8.77952V9.67701C8.89548 9.80131 8.90152 9.89376 8.91502 9.95441C8.92867 10.0152 8.9581 10.0551 9.0033 10.0742C9.04866 10.0934 9.11795 10.1027 9.21164 10.1021V10.2043H8.07159V10.1021C8.16372 10.1027 8.23223 10.0934 8.27696 10.0742C8.32161 10.0551 8.35064 10.0152 8.3639 9.95441C8.3774 9.89376 8.3836 9.80131 8.38203 9.67701V8.74115C8.38423 8.31999 8.26942 8.11164 8.03753 8.11588C7.8933 8.12106 7.7723 8.18957 7.67499 8.32101C7.57745 8.45276 7.52676 8.61693 7.52299 8.8135V9.67701C7.52166 9.80265 7.52762 9.89603 7.54112 9.95645C7.55454 10.017 7.58349 10.0567 7.62822 10.0752C7.67287 10.0937 7.74122 10.1027 7.83351 10.1021V10.2043H6.68066V10.1021C6.77719 10.1027 6.84836 10.0937 6.89497 10.0752C6.94135 10.0567 6.97156 10.017 6.98537 9.95645C6.99926 9.89603 7.00546 9.80265 7.00389 9.67701V8.49459C7.00852 8.32132 6.99102 8.20934 6.95179 8.1581C6.91271 8.10654 6.82521 8.08284 6.6893 8.08606V7.98381L7.51867 7.92864Z" fill="black"/>
<path fill-rule="evenodd" clip-rule="evenodd" d="M13.6264 8.12351V9.54417C13.6263 9.63662 13.6297 9.71321 13.6365 9.77386C13.6434 9.83452 13.6542 9.88545 13.6689 9.92696C13.6869 9.97444 13.7148 10.0123 13.7523 10.041C13.79 10.0692 13.8318 10.0837 13.8772 10.0844C13.9682 10.0831 14.0673 10.0389 14.1752 9.9527L14.2347 10.0587C14.0638 10.2022 13.8697 10.273 13.652 10.2716C13.4172 10.2681 13.257 10.1898 13.1712 10.0377C13.1544 10.0039 13.1413 9.96565 13.132 9.92218C13.1229 9.87902 13.1163 9.82095 13.1127 9.74726C13.109 9.67389 13.1072 9.57494 13.1074 9.45064V8.12351H12.865V7.99599C12.9577 7.99238 13.0361 7.97292 13.1006 7.93753C13.1651 7.9019 13.2212 7.84642 13.2692 7.77046C13.3068 7.7127 13.3379 7.64843 13.3621 7.57804C13.3865 7.50757 13.4079 7.42 13.4265 7.31516L13.6393 7.29413C13.6364 7.35024 13.6339 7.40736 13.6321 7.46543C13.6303 7.52319 13.6288 7.59295 13.6279 7.67433C13.6269 7.75578 13.6264 7.86031 13.6264 7.9872H14.1412V8.12351H13.6264Z" fill="black"/>
<path fill-rule="evenodd" clip-rule="evenodd" d="M12.8632 10.1148V10.2048C12.7388 10.2128 12.6885 10.2128 12.5577 10.2128C12.4539 10.2128 12.3464 10.2112 12.2572 10.1778C12.202 10.157 12.1712 10.1391 12.13 10.096C12.1013 10.0502 12.083 10.0477 12.0739 9.92076C11.9641 10.0395 11.8497 10.1264 11.731 10.1826C11.612 10.2384 11.4839 10.266 11.3466 10.2654C11.1424 10.2631 10.9827 10.207 10.8673 10.0963C10.7521 9.98566 10.6936 9.8335 10.6914 9.64006C10.6907 9.27501 10.9176 9.04815 11.3719 8.95955C11.5769 8.91976 11.8093 8.89277 12.0696 8.87849V8.60203C12.0717 8.38066 12.0483 8.22724 11.9995 8.14187C11.9504 8.05657 11.8632 8.01568 11.7378 8.01961C11.6045 8.01662 11.5096 8.06496 11.4528 8.164C11.4323 8.19837 11.4171 8.23729 11.4076 8.28178C11.3982 8.32588 11.3905 8.38717 11.3848 8.46604C11.3814 8.542 11.3594 8.59591 11.3188 8.62769C11.2782 8.65979 11.2137 8.67532 11.1253 8.6747C10.9282 8.67313 10.829 8.60784 10.8276 8.47898C10.8282 8.40373 10.8515 8.33169 10.8973 8.26358C10.943 8.19507 11.0077 8.13504 11.0913 8.08317C11.2684 7.97417 11.501 7.92026 11.789 7.92159C12.0817 7.92026 12.2915 7.97833 12.4184 8.09612C12.4756 8.15003 12.5176 8.21877 12.5445 8.30219C12.5714 8.38592 12.5846 8.49303 12.5842 8.62377L12.5799 8.99369L12.5758 9.36361C12.5723 9.485 12.5707 9.56151 12.5715 9.59329C12.57 9.74687 12.5748 9.85877 12.586 9.92924C12.5972 9.99994 12.6094 10.0311 12.6557 10.0694C12.737 10.1158 12.8066 10.1145 12.8632 10.1148ZM12.0698 9.30414V8.97676C11.7652 8.99724 11.5492 9.05366 11.4216 9.14547C11.2942 9.2376 11.2323 9.38105 11.2361 9.57613C11.2374 9.72923 11.2687 9.85063 11.3303 9.94048C11.3916 10.0304 11.4751 10.0762 11.5806 10.078C11.6671 10.0774 11.747 10.0525 11.8204 10.0031C11.8937 9.95413 11.9512 9.88531 11.9932 9.79742C12.0205 9.74359 12.0401 9.67799 12.0524 9.60006C12.0642 9.52222 12.0701 9.42358 12.0698 9.30414Z" fill="black"/>
<path fill-rule="evenodd" clip-rule="evenodd" d="M16.5252 10.1142V10.2041C16.4007 10.2122 16.3505 10.2125 16.2196 10.2125C16.1158 10.2125 16.0085 10.2109 15.919 10.1775C15.8639 10.1567 15.8332 10.1392 15.7921 10.0954C15.7633 10.0499 15.7449 10.0473 15.7358 9.92046C15.6259 10.0389 15.5117 10.1261 15.3929 10.1823C15.2739 10.2378 15.1458 10.2657 15.0084 10.2651C14.8043 10.2628 14.6446 10.2063 14.5292 10.0961C14.414 9.98535 14.3555 9.8332 14.3533 9.63976C14.3526 9.27471 14.5795 9.04792 15.0339 8.95932C15.2388 8.91938 15.4713 8.89247 15.7315 8.87818V8.60172C15.7336 8.38043 15.7101 8.22694 15.6613 8.14125C15.6124 8.05595 15.5251 8.01538 15.3997 8.0193C15.2664 8.0164 15.1714 8.06474 15.1147 8.16369C15.0941 8.19806 15.079 8.23698 15.0696 8.28148C15.0602 8.32558 15.0524 8.38687 15.0468 8.46573C15.0434 8.54138 15.0213 8.59529 14.9807 8.62739C14.9402 8.65948 14.8757 8.67502 14.7871 8.67439C14.5901 8.67282 14.4909 8.60761 14.4894 8.47876C14.4901 8.40342 14.5134 8.33139 14.5592 8.26327C14.6049 8.19484 14.6697 8.13473 14.7532 8.08318C14.9304 7.97387 15.163 7.91995 15.4509 7.92129C15.7436 7.91995 15.9535 7.97802 16.0804 8.09581C16.1376 8.14972 16.1796 8.21854 16.2063 8.30188C16.2332 8.38561 16.2465 8.49273 16.2461 8.62315L16.2419 8.99338L16.2377 9.3633C16.2342 9.4847 16.2327 9.56121 16.2334 9.59299C16.2319 9.74648 16.2368 9.85846 16.2478 9.92893C16.2591 9.99964 16.2713 10.0309 16.3176 10.0691C16.3988 10.1155 16.4686 10.1139 16.5252 10.1142ZM15.7316 9.30399V8.97621C15.427 8.99701 15.211 9.05343 15.0834 9.14524C14.9558 9.23745 14.8941 9.38082 14.8979 9.5759C14.8992 9.72908 14.9306 9.8504 14.9921 9.94025C15.0534 10.0302 15.137 10.0759 15.2424 10.0778C15.329 10.0772 15.4089 10.0522 15.4822 10.0029C15.5555 9.9539 15.6131 9.88508 15.6549 9.79719C15.6824 9.74328 15.702 9.67776 15.7141 9.59983C15.7261 9.52199 15.732 9.42335 15.7316 9.30399Z" fill="black"/>
<path fill-rule="evenodd" clip-rule="evenodd" d="M24.6555 3.29673L24.6448 3.50527L28.6449 8.19826L28.7888 8.22133L28.8068 8.21224L28.8771 8.08251L27.171 2.3721L26.8815 2.17694L24.6555 3.29673Z" fill="#0096B8"/>
<path fill-rule="evenodd" clip-rule="evenodd" d="M24.6448 3.50519L28.645 8.19808L28.7886 8.22125L25.8386 3.7331L24.6448 3.50519Z" fill="#005675"/>
<path fill-rule="evenodd" clip-rule="evenodd" d="M26.8811 2.17694L25.8613 3.37753L26.2778 3.5596L27.1707 2.3723V2.3721L26.8811 2.17694Z" fill="#0BBBEF"/>
<path fill-rule="evenodd" clip-rule="evenodd" d="M24.6448 3.52936L25.8386 3.78353L25.8615 3.38679L24.6552 3.29724L24.6448 3.52936Z" fill="#007290"/>
<path fill-rule="evenodd" clip-rule="evenodd" d="M26.2773 3.55936L28.8065 8.212L28.8767 8.08197L27.1708 2.37225L26.2773 3.55936Z" fill="#007290"/>
<path fill-rule="evenodd" clip-rule="evenodd" d="M31.0756 2.06378L33.6623 3.25298L33.6671 3.58856L29.4221 10.0187L29.2285 10.0695L29.1998 10.0566L29.1394 9.9117L30.8503 2.18912L31.0756 2.06378Z" fill="#81B73E"/>
<mask id="mask0_6665_35929" style="mask-type:alpha" maskUnits="userSpaceOnUse" x="29" y="3" width="5" height="8">
<path fill-rule="evenodd" clip-rule="evenodd" d="M33.6665 10.069V3.58807H29.228V10.069H33.6665Z" fill="white"/>
</mask>
<g mask="url(#mask0_6665_35929)">
<path fill-rule="evenodd" clip-rule="evenodd" d="M31.9433 3.73489L29.228 10.069L29.4214 10.0183L33.6665 3.58807L31.9433 3.73489Z" fill="#69931D"/>
</g>
<path fill-rule="evenodd" clip-rule="evenodd" d="M30.8493 2.18939L29.1384 9.91137L29.1991 10.0564L31.4547 3.46658L30.8493 2.18939Z" fill="#277933"/>
<path fill-rule="evenodd" clip-rule="evenodd" d="M31.8455 3.27678L31.9433 3.73941L33.6664 3.59117L33.6617 3.25311H33.6615L31.8455 3.27678Z" fill="#AECC53"/>
<path fill-rule="evenodd" clip-rule="evenodd" d="M30.8501 2.18899L31.4549 3.46598L31.846 3.27662L31.0754 2.06384L30.8501 2.18899Z" fill="#69931D"/>
<path fill-rule="evenodd" clip-rule="evenodd" d="M27.1235 0.234333L27.2268 0.0360824L30.5381 0.000427246L30.7523 0.222348L29.1658 5.52348L29.065 5.5817L29.0619 5.5813L28.9532 5.5081L27.1235 0.234333Z" fill="#E4032E"/>
<path fill-rule="evenodd" clip-rule="evenodd" d="M27.1235 0.233479L28.4065 0.872576L28.6449 0.590331L27.2263 0.0358276L27.1235 0.233479Z" fill="#B51227"/>
<path fill-rule="evenodd" clip-rule="evenodd" d="M27.1235 0.234148L28.9532 5.50791L29.0613 5.58111L28.4067 0.872643L27.1235 0.233948V0.234148Z" fill="#791B15"/>
<path fill-rule="evenodd" clip-rule="evenodd" d="M29.0298 0.873631L29.0655 5.58161L29.1663 5.52298L30.7526 0.222351L29.0298 0.873631Z" fill="#B51227"/>
<path fill-rule="evenodd" clip-rule="evenodd" d="M30.539 0L28.6462 0.590758L29.0301 0.873302L30.7529 0.222221L30.539 0Z" fill="#EA5160"/>
</svg>
